<?xml version="1.0" encoding="utf-8"?>
<!-- Generator: Adobe Illustrator 17.0.0, SVG Export Plug-In . SVG Version: 6.00 Build 0)  -->
<!DOCTYPE svg PUBLIC "-//W3C//DTD SVG 1.1//EN" "http://www.w3.org/Graphics/SVG/1.1/DTD/svg11.dtd">
<svg version="1.1" id="Capa_1" xmlns="http://www.w3.org/2000/svg" xmlns:xlink="http://www.w3.org/1999/xlink" x="0px" y="0px"
	 width="140px" height="35px" viewBox="0 0 140 35" enable-background="new 0 0 140 35" xml:space="preserve">
<line fill="none" stroke="#FECD1B" stroke-width="2" stroke-linecap="round" stroke-miterlimit="10" x1="1.229" y1="3" x2="90.349" y2="3"/>
<line fill="none" stroke="#FECD1B" stroke-width="2" stroke-linecap="round" stroke-miterlimit="10" x1="90.349" y1="3" x2="112.407" y2="25.058"/>
<line fill="none" stroke="#FECD1B" stroke-width="2" stroke-linecap="round" stroke-miterlimit="10" x1="112.407" y1="25.058" x2="133.535" y2="3.932"/>
<line fill="none" stroke="#FECD1B" stroke-width="2" stroke-linecap="round" stroke-miterlimit="10" x1="90.815" y1="10.714" x2="112.873" y2="32.772"/>
<line fill="none" stroke="#FECD1B" stroke-width="2" stroke-linecap="round" stroke-miterlimit="10" x1="112.873" y1="32.772" x2="134" y2="11.645"/>
<g>
	<path fill="#FFFFFF" d="M1.694,15.917c-0.094-0.551-0.141-1.107-0.141-1.67s0.044-1.116,0.132-1.661s0.218-1.077,0.391-1.595
		c0.173-0.52,0.398-0.996,0.677-1.433S3.35,8.739,3.707,8.411c0.762-0.697,1.708-1.046,2.839-1.046c1.436,0,2.569,0.718,3.401,2.153
		c0.404,0.697,0.677,1.415,0.817,2.153v0.009l-1.828,0.492c-0.094-0.627-0.205-1.086-0.334-1.375
		c-0.129-0.291-0.258-0.533-0.387-0.73C8.087,9.871,7.946,9.709,7.794,9.58C7.431,9.281,7.019,9.132,6.559,9.132
		S5.705,9.236,5.377,9.443c-0.328,0.209-0.598,0.48-0.809,0.817c-0.211,0.338-0.387,0.731-0.527,1.183
		c-0.258,0.832-0.387,1.77-0.387,2.813c0,2.766,0.656,4.418,1.969,4.957c0.281,0.117,0.58,0.176,0.896,0.176
		s0.599-0.041,0.848-0.123s0.458-0.188,0.628-0.321c0.17-0.131,0.321-0.288,0.453-0.47s0.237-0.364,0.316-0.55
		c0.079-0.184,0.142-0.373,0.189-0.566c0.088-0.34,0.132-0.656,0.132-0.949l1.96,0.272c-0.264,1.125-0.724,2.101-1.38,2.927
		c-0.832,1.031-1.878,1.547-3.138,1.547c-1.547,0-2.792-0.735-3.735-2.206C2.26,18.123,1.894,17.112,1.694,15.917z"/>
	<path fill="#FFFFFF" d="M12.039,15.645c-0.059-0.445-0.088-0.888-0.088-1.327s0.026-0.882,0.079-1.327s0.141-0.897,0.264-1.358
		c0.123-0.459,0.275-0.895,0.457-1.305s0.412-0.798,0.69-1.165c0.278-0.366,0.59-0.681,0.936-0.944
		c0.744-0.568,1.649-0.853,2.716-0.853c1.465,0,2.637,0.604,3.516,1.811c0.949,1.313,1.424,3.026,1.424,5.142
		c0,2.156-0.457,3.855-1.371,5.098c-0.855,1.16-2.045,1.74-3.568,1.74c-1.447,0-2.634-0.583-3.56-1.749
		C12.748,18.422,12.25,17.168,12.039,15.645z M15.37,18.756c0.451,0.422,1.02,0.633,1.705,0.633c1.904,0,2.856-1.693,2.856-5.08
		c0-2.76-0.645-4.424-1.934-4.992c-0.281-0.123-0.593-0.185-0.936-0.185s-0.659,0.062-0.949,0.185s-0.536,0.285-0.738,0.488
		c-0.202,0.202-0.384,0.446-0.545,0.733s-0.289,0.583-0.382,0.888s-0.171,0.632-0.233,0.979c-0.062,0.35-0.104,0.676-0.127,0.98
		s-0.035,0.617-0.035,0.936c0,0.32,0.012,0.635,0.035,0.945s0.066,0.639,0.127,0.984c0.061,0.345,0.139,0.665,0.233,0.958
		s0.221,0.575,0.382,0.849C14.991,18.329,15.171,18.563,15.37,18.756z"/>
	<path fill="#FFFFFF" d="M30.654,15.785V7.611h2.101v13.315h-1.67l-5.379-10.213v10.213h-2.101V7.611h2.707L30.654,15.785z"/>
	<path fill="#FFFFFF" d="M33.792,9.378V7.611h9.29v1.767h-3.595v11.549h-2.101V9.378H33.792z"/>
	<path fill="#FFFFFF" d="M42.071,20.927l3.797-13.315h2.303l3.796,13.315h-2.03l-1.099-3.858H45.35l-1.099,3.858H42.071z
		 M45.851,15.302h2.487l-1.239-4.298L45.851,15.302z"/>
	<path fill="#FFFFFF" d="M52.363,15.917c-0.094-0.551-0.141-1.107-0.141-1.67s0.044-1.116,0.132-1.661s0.218-1.077,0.391-1.595
		c0.173-0.52,0.398-0.996,0.678-1.433c0.277-0.438,0.596-0.819,0.953-1.147c0.762-0.697,1.708-1.046,2.839-1.046
		c1.436,0,2.569,0.718,3.401,2.153c0.404,0.697,0.677,1.415,0.817,2.153v0.009l-1.828,0.492c-0.094-0.627-0.205-1.086-0.334-1.375
		c-0.129-0.291-0.258-0.533-0.387-0.73c-0.129-0.196-0.27-0.358-0.422-0.487c-0.363-0.299-0.775-0.448-1.235-0.448
		s-0.854,0.104-1.182,0.312c-0.328,0.209-0.598,0.48-0.809,0.817c-0.211,0.338-0.387,0.731-0.527,1.183
		c-0.258,0.832-0.387,1.77-0.387,2.813c0,2.766,0.656,4.418,1.969,4.957c0.281,0.117,0.58,0.176,0.896,0.176
		s0.599-0.041,0.848-0.123s0.459-0.188,0.629-0.321c0.17-0.131,0.32-0.288,0.453-0.47c0.131-0.182,0.236-0.364,0.316-0.55
		c0.078-0.184,0.142-0.373,0.188-0.566c0.088-0.34,0.132-0.656,0.132-0.949l1.96,0.272c-0.264,1.125-0.724,2.101-1.38,2.927
		c-0.832,1.031-1.878,1.547-3.138,1.547c-1.547,0-2.792-0.735-3.735-2.206C52.928,18.123,52.562,17.112,52.363,15.917z"/>
	<path fill="#FFFFFF" d="M61.874,9.378V7.611h9.291v1.767H67.57v11.549h-2.101V9.378H61.874z"/>
	<path fill="#FFFFFF" d="M71.34,15.645c-0.059-0.445-0.088-0.888-0.088-1.327s0.025-0.882,0.078-1.327s0.141-0.897,0.264-1.358
		c0.123-0.459,0.275-0.895,0.457-1.305s0.412-0.798,0.689-1.165c0.279-0.366,0.592-0.681,0.938-0.944
		c0.744-0.568,1.648-0.853,2.715-0.853c1.465,0,2.637,0.604,3.516,1.811c0.949,1.313,1.424,3.026,1.424,5.142
		c0,2.156-0.457,3.855-1.371,5.098c-0.855,1.16-2.045,1.74-3.568,1.74c-1.447,0-2.633-0.583-3.559-1.749
		C72.049,18.422,71.551,17.168,71.34,15.645z M74.67,18.756c0.451,0.422,1.02,0.633,1.705,0.633c1.904,0,2.857-1.693,2.857-5.08
		c0-2.76-0.645-4.424-1.934-4.992c-0.281-0.123-0.594-0.185-0.938-0.185c-0.342,0-0.658,0.062-0.949,0.185
		c-0.289,0.123-0.535,0.285-0.738,0.488c-0.201,0.202-0.383,0.446-0.545,0.733c-0.16,0.287-0.287,0.583-0.381,0.888
		s-0.172,0.632-0.234,0.979c-0.061,0.35-0.104,0.676-0.127,0.98s-0.035,0.617-0.035,0.936c0,0.32,0.012,0.635,0.035,0.945
		s0.066,0.639,0.127,0.984c0.063,0.346,0.141,0.665,0.234,0.958s0.221,0.575,0.381,0.849C74.291,18.329,74.471,18.563,74.67,18.756z
		"/>
</g>
</svg>
