<?xml version="1.0" encoding="utf-8"?>
<!-- Generator: Adobe Illustrator 17.0.0, SVG Export Plug-In . SVG Version: 6.00 Build 0)  -->
<!DOCTYPE svg PUBLIC "-//W3C//DTD SVG 1.1//EN" "http://www.w3.org/Graphics/SVG/1.1/DTD/svg11.dtd">
<svg version="1.1" id="Capa_1" xmlns="http://www.w3.org/2000/svg" xmlns:xlink="http://www.w3.org/1999/xlink" x="0px" y="0px"
	 width="140px" height="35px" viewBox="0 0 140 35" enable-background="new 0 0 140 35" xml:space="preserve">
<line fill="none" stroke="#FECD1B" stroke-width="2" stroke-linecap="round" stroke-miterlimit="10" x1="1.229" y1="3" x2="90.349" y2="3"/>
<line fill="none" stroke="#FECD1B" stroke-width="2" stroke-linecap="round" stroke-miterlimit="10" x1="90.349" y1="3" x2="112.407" y2="25.058"/>
<line fill="none" stroke="#FECD1B" stroke-width="2" stroke-linecap="round" stroke-miterlimit="10" x1="112.407" y1="25.058" x2="133.535" y2="3.932"/>
<line fill="none" stroke="#FECD1B" stroke-width="2" stroke-linecap="round" stroke-miterlimit="10" x1="90.815" y1="10.714" x2="112.873" y2="32.772"/>
<line fill="none" stroke="#FECD1B" stroke-width="2" stroke-linecap="round" stroke-miterlimit="10" x1="112.873" y1="32.772" x2="134" y2="11.645"/>
<g>
	<path fill="#FFFFFF" d="M2.081,20.927V7.611h3.138c3.211,0,5.15,1.292,5.818,3.876c0.211,0.826,0.316,1.696,0.316,2.61
		s-0.063,1.685-0.189,2.312s-0.341,1.222-0.646,1.784s-0.686,1.043-1.143,1.441c-1.002,0.861-2.388,1.292-4.157,1.292H2.081V20.927z
		 M4.182,19.16h1.266c1.225,0,2.168-0.442,2.83-1.327c0.65-0.879,0.976-2.036,0.976-3.472c0-2.736-0.876-4.348-2.628-4.834
		c-0.357-0.1-0.75-0.149-1.178-0.149H4.182V19.16z"/>
	<path fill="#FFFFFF" d="M12.672,20.927V7.611h2.101v13.315h-2.101V20.927z"/>
	<path fill="#FFFFFF" d="M16.724,20.927V7.611h4.474c2.057,0,3.357,0.735,3.902,2.206c0.158,0.428,0.237,0.87,0.237,1.327
		s-0.051,0.873-0.154,1.248s-0.253,0.724-0.453,1.046c-0.439,0.703-1.087,1.146-1.942,1.327l2.461,6.161h-2.153l-2.303-5.774h-1.969
		v5.774h-2.1V20.927z M18.824,13.386h2.224c0.615,0,1.128-0.167,1.538-0.502c0.434-0.358,0.65-0.907,0.65-1.647
		c0-1.239-0.981-1.858-2.944-1.858h-1.468V13.386z"/>
	<path fill="#FFFFFF" d="M26.576,20.927V7.611h7.62v1.767h-5.52v3.691h3.841v1.767h-3.841v4.201h5.854v1.89H26.576z"/>
	<path fill="#FFFFFF" d="M35.313,15.917c-0.094-0.551-0.141-1.107-0.141-1.67s0.044-1.116,0.132-1.661s0.218-1.077,0.391-1.595
		c0.173-0.52,0.398-0.996,0.677-1.433c0.278-0.438,0.596-0.819,0.954-1.147c0.762-0.697,1.708-1.046,2.839-1.046
		c1.436,0,2.569,0.718,3.401,2.153c0.404,0.697,0.677,1.415,0.817,2.153v0.009l-1.828,0.492c-0.094-0.627-0.205-1.086-0.334-1.375
		c-0.129-0.291-0.258-0.533-0.387-0.73c-0.129-0.196-0.27-0.358-0.422-0.487c-0.363-0.299-0.775-0.448-1.235-0.448
		s-0.854,0.104-1.182,0.312c-0.328,0.209-0.598,0.48-0.809,0.817c-0.211,0.338-0.387,0.731-0.527,1.183
		c-0.258,0.832-0.387,1.77-0.387,2.813c0,2.766,0.656,4.418,1.969,4.957c0.281,0.117,0.58,0.176,0.896,0.176
		s0.599-0.041,0.848-0.123s0.458-0.188,0.628-0.321c0.17-0.131,0.321-0.288,0.453-0.47s0.237-0.364,0.316-0.55
		c0.079-0.184,0.142-0.373,0.189-0.566c0.088-0.34,0.132-0.656,0.132-0.949l1.96,0.272c-0.264,1.125-0.724,2.101-1.38,2.927
		c-0.832,1.031-1.878,1.547-3.138,1.547c-1.547,0-2.792-0.735-3.735-2.206C35.878,18.123,35.512,17.112,35.313,15.917z"/>
	<path fill="#FFFFFF" d="M45.71,15.917c-0.094-0.551-0.141-1.107-0.141-1.67s0.044-1.116,0.132-1.661s0.218-1.077,0.391-1.595
		c0.173-0.52,0.398-0.996,0.677-1.433c0.278-0.438,0.596-0.819,0.954-1.147c0.762-0.697,1.708-1.046,2.839-1.046
		c1.435,0,2.57,0.718,3.402,2.153c0.404,0.697,0.676,1.415,0.816,2.153v0.009l-1.828,0.492c-0.094-0.627-0.205-1.086-0.334-1.375
		c-0.129-0.291-0.258-0.533-0.387-0.73c-0.129-0.196-0.27-0.358-0.422-0.487c-0.363-0.299-0.775-0.448-1.234-0.448
		c-0.46,0-0.854,0.104-1.182,0.312c-0.328,0.209-0.598,0.48-0.809,0.817c-0.211,0.338-0.387,0.731-0.527,1.183
		c-0.258,0.832-0.387,1.77-0.387,2.813c0,2.766,0.656,4.418,1.969,4.957c0.281,0.117,0.58,0.176,0.896,0.176
		c0.317,0,0.598-0.041,0.848-0.123c0.248-0.082,0.459-0.188,0.629-0.321c0.17-0.131,0.32-0.288,0.453-0.47
		c0.131-0.182,0.236-0.364,0.316-0.55c0.078-0.184,0.141-0.373,0.188-0.566c0.088-0.34,0.133-0.656,0.133-0.949l1.959,0.272
		c-0.264,1.125-0.723,2.101-1.379,2.927c-0.832,1.031-1.879,1.547-3.138,1.547c-1.547,0-2.792-0.735-3.735-2.206
		C46.275,18.123,45.909,17.112,45.71,15.917z"/>
	<path fill="#FFFFFF" d="M56.283,20.927V7.611h2.101v13.315h-2.101V20.927z"/>
	<path fill="#FFFFFF" d="M59.896,15.645c-0.059-0.445-0.088-0.888-0.088-1.327s0.026-0.882,0.079-1.327s0.141-0.897,0.264-1.358
		c0.123-0.459,0.275-0.895,0.457-1.305s0.411-0.798,0.689-1.165c0.278-0.366,0.591-0.681,0.937-0.944
		c0.744-0.568,1.649-0.853,2.716-0.853c1.465,0,2.637,0.604,3.516,1.811c0.949,1.313,1.424,3.026,1.424,5.142
		c0,2.156-0.457,3.855-1.371,5.098c-0.855,1.16-2.045,1.74-3.568,1.74c-1.447,0-2.634-0.583-3.56-1.749
		C60.605,18.422,60.107,17.168,59.896,15.645z M63.227,18.756c0.451,0.422,1.02,0.633,1.705,0.633c1.904,0,2.856-1.693,2.856-5.08
		c0-2.76-0.645-4.424-1.934-4.992c-0.281-0.123-0.593-0.185-0.937-0.185c-0.342,0-0.658,0.062-0.949,0.185
		c-0.289,0.123-0.535,0.285-0.738,0.488c-0.201,0.202-0.384,0.446-0.545,0.733s-0.288,0.583-0.382,0.888s-0.171,0.632-0.233,0.979
		c-0.061,0.35-0.104,0.676-0.127,0.98s-0.035,0.617-0.035,0.936c0,0.32,0.012,0.635,0.035,0.945s0.066,0.639,0.127,0.984
		c0.063,0.346,0.14,0.665,0.233,0.958s0.221,0.575,0.382,0.849C62.847,18.329,63.028,18.563,63.227,18.756z"/>
	<path fill="#FFFFFF" d="M78.512,15.785V7.611h2.1v13.315h-1.67l-5.379-10.213v10.213h-2.1V7.611h2.707L78.512,15.785z"/>
</g>
</svg>
