<?xml version="1.0" encoding="utf-8"?>
<!-- Generator: Adobe Illustrator 17.0.0, SVG Export Plug-In . SVG Version: 6.00 Build 0)  -->
<!DOCTYPE svg PUBLIC "-//W3C//DTD SVG 1.1//EN" "http://www.w3.org/Graphics/SVG/1.1/DTD/svg11.dtd">
<svg version="1.1" id="Capa_1" xmlns="http://www.w3.org/2000/svg" xmlns:xlink="http://www.w3.org/1999/xlink" x="0px" y="0px"
	 width="140px" height="35px" viewBox="0 0 140 35" enable-background="new 0 0 140 35" xml:space="preserve">
<line fill="none" stroke="#FECD1B" stroke-width="2" stroke-linecap="round" stroke-miterlimit="10" x1="1.229" y1="3" x2="90.349" y2="3"/>
<line fill="none" stroke="#FECD1B" stroke-width="2" stroke-linecap="round" stroke-miterlimit="10" x1="90.349" y1="3" x2="112.407" y2="25.058"/>
<line fill="none" stroke="#FECD1B" stroke-width="2" stroke-linecap="round" stroke-miterlimit="10" x1="112.407" y1="25.058" x2="133.535" y2="3.932"/>
<line fill="none" stroke="#FECD1B" stroke-width="2" stroke-linecap="round" stroke-miterlimit="10" x1="90.815" y1="10.714" x2="112.873" y2="32.772"/>
<line fill="none" stroke="#FECD1B" stroke-width="2" stroke-linecap="round" stroke-miterlimit="10" x1="112.873" y1="32.772" x2="134" y2="11.645"/>
<g>
	<path d="M2.081,20.927V7.611h7.62v1.767h-5.52v3.691h3.841v1.767H4.182v4.201h5.854v1.89H2.081z"/>
	<path d="M10.765,15.645c-0.059-0.445-0.088-0.888-0.088-1.327s0.026-0.882,0.079-1.327s0.141-0.897,0.264-1.358
		c0.123-0.459,0.275-0.895,0.457-1.305s0.412-0.798,0.69-1.165c0.278-0.366,0.59-0.681,0.936-0.944
		c0.744-0.568,1.649-0.853,2.716-0.853c1.465,0,2.637,0.604,3.516,1.811c0.949,1.313,1.424,3.026,1.424,5.142
		c0,2.156-0.457,3.855-1.371,5.098c-0.674,0.908-1.553,1.462-2.637,1.661c0.012,0.229,0.029,0.366,0.053,0.413
		c0.035,0.07,0.079,0.132,0.132,0.185s0.11,0.085,0.171,0.097s0.148,0.026,0.259,0.044c0.141,0.023,0.419,0.035,0.835,0.035h2.021
		v1.564h-1.239c-1.201,0-1.919-0.02-2.153-0.058s-0.447-0.08-0.637-0.127s-0.327-0.102-0.409-0.162
		c-0.082-0.063-0.177-0.143-0.286-0.242s-0.182-0.211-0.22-0.334s-0.081-0.272-0.127-0.448c-0.053-0.205-0.085-0.521-0.097-0.949
		c-1.102-0.17-2.033-0.732-2.795-1.688C11.474,18.422,10.976,17.168,10.765,15.645z M14.096,18.756
		c0.451,0.422,1.02,0.633,1.705,0.633c1.904,0,2.856-1.693,2.856-5.08c0-2.76-0.645-4.424-1.934-4.992
		c-0.281-0.123-0.593-0.185-0.936-0.185s-0.659,0.062-0.949,0.185S14.302,9.602,14.1,9.805c-0.202,0.202-0.384,0.446-0.545,0.733
		s-0.289,0.583-0.382,0.888s-0.171,0.632-0.233,0.979c-0.062,0.35-0.104,0.676-0.127,0.98s-0.035,0.617-0.035,0.936
		c0,0.32,0.012,0.635,0.035,0.945s0.066,0.639,0.127,0.984s0.139,0.665,0.233,0.958s0.221,0.575,0.382,0.849
		C13.716,18.329,13.896,18.563,14.096,18.756z"/>
	<path d="M22.401,16.989V7.611h2.101v8.877c0,1.482,0.478,2.402,1.433,2.76c0.246,0.094,0.521,0.141,0.826,0.141
		s0.58-0.041,0.826-0.123s0.445-0.185,0.598-0.308s0.284-0.279,0.396-0.471c0.111-0.189,0.193-0.364,0.246-0.522
		s0.097-0.346,0.132-0.563c0.035-0.281,0.053-0.586,0.053-0.914V7.611h2.145v9.378c0,1.342-0.442,2.405-1.327,3.19
		c-0.732,0.65-1.752,0.976-3.059,0.976c-1.986,0-3.305-0.753-3.955-2.259C22.539,18.275,22.401,17.64,22.401,16.989z"/>
	<path d="M33.036,20.927V7.611h2.101v13.315H33.036z"/>
	<path d="M37.088,20.927V7.611h4.544c1.652,0,2.81,0.475,3.472,1.424c0.381,0.551,0.571,1.222,0.571,2.013
		c0,1.406-0.428,2.496-1.283,3.27c-0.627,0.557-1.453,0.835-2.479,0.835h-2.725v5.774H37.088z M43.574,11.131
		c0-1.169-0.979-1.753-2.936-1.753h-1.45v4.008h1.45c0.902,0,1.617-0.195,2.145-0.586S43.574,11.854,43.574,11.131z"/>
	<path d="M46.765,15.645c-0.059-0.445-0.088-0.888-0.088-1.327s0.026-0.882,0.079-1.327s0.141-0.897,0.264-1.358
		c0.123-0.459,0.275-0.895,0.457-1.305s0.412-0.798,0.69-1.165c0.278-0.366,0.59-0.681,0.936-0.944
		c0.744-0.568,1.649-0.853,2.716-0.853c1.465,0,2.637,0.604,3.516,1.811c0.949,1.313,1.424,3.026,1.424,5.142
		c0,2.156-0.457,3.855-1.371,5.098c-0.855,1.16-2.045,1.74-3.568,1.74c-1.448,0-2.634-0.583-3.56-1.749
		C47.474,18.422,46.976,17.168,46.765,15.645z M50.096,18.756c0.451,0.422,1.02,0.633,1.706,0.633c1.904,0,2.855-1.693,2.855-5.08
		c0-2.76-0.645-4.424-1.934-4.992c-0.281-0.123-0.592-0.185-0.936-0.185c-0.342,0-0.658,0.062-0.949,0.185
		c-0.29,0.123-0.536,0.285-0.738,0.488c-0.202,0.202-0.384,0.446-0.545,0.733s-0.289,0.583-0.382,0.888s-0.171,0.632-0.233,0.979
		c-0.062,0.35-0.104,0.676-0.127,0.98s-0.035,0.617-0.035,0.936c0,0.32,0.012,0.635,0.035,0.945s0.066,0.639,0.127,0.984
		s0.139,0.665,0.233,0.958s0.221,0.575,0.382,0.849C49.716,18.329,49.896,18.563,50.096,18.756z"/>
</g>
<g>
</g>
<g>
</g>
<g>
</g>
<g>
</g>
<g>
</g>
<g>
</g>
</svg>
