<?xml version="1.0" encoding="utf-8"?>
<!-- Generator: Adobe Illustrator 17.0.0, SVG Export Plug-In . SVG Version: 6.00 Build 0)  -->
<!DOCTYPE svg PUBLIC "-//W3C//DTD SVG 1.1//EN" "http://www.w3.org/Graphics/SVG/1.1/DTD/svg11.dtd">
<svg version="1.1" id="Capa_1" xmlns="http://www.w3.org/2000/svg" xmlns:xlink="http://www.w3.org/1999/xlink" x="0px" y="0px"
	 width="140px" height="35px" viewBox="0 0 140 35" enable-background="new 0 0 140 35" xml:space="preserve">
<line fill="none" stroke="#FECD1B" stroke-width="2" stroke-linecap="round" stroke-miterlimit="10" x1="1.229" y1="3" x2="90.349" y2="3"/>
<line fill="none" stroke="#FECD1B" stroke-width="2" stroke-linecap="round" stroke-miterlimit="10" x1="90.349" y1="3" x2="112.407" y2="25.058"/>
<line fill="none" stroke="#FECD1B" stroke-width="2" stroke-linecap="round" stroke-miterlimit="10" x1="112.407" y1="25.058" x2="133.535" y2="3.932"/>
<line fill="none" stroke="#FECD1B" stroke-width="2" stroke-linecap="round" stroke-miterlimit="10" x1="90.815" y1="10.714" x2="112.873" y2="32.772"/>
<line fill="none" stroke="#FECD1B" stroke-width="2" stroke-linecap="round" stroke-miterlimit="10" x1="112.873" y1="32.772" x2="134" y2="11.645"/>
<g>
	<path fill="#FFFFFF" d="M1.87,20.927V7.611h2.101v13.315H1.87V20.927z"/>
	<path fill="#FFFFFF" d="M12.9,15.785V7.611h2.101v13.315h-1.67L7.952,10.714v10.213h-2.1V7.611h2.707L12.9,15.785z"/>
	<path fill="#FFFFFF" d="M17.102,20.927V7.611h7.62v1.767h-5.52v3.691h3.841v1.767h-3.841v6.091H17.102z"/>
	<path fill="#FFFFFF" d="M25.521,15.645c-0.059-0.445-0.088-0.888-0.088-1.327s0.026-0.882,0.079-1.327s0.141-0.897,0.264-1.358
		c0.123-0.459,0.275-0.895,0.457-1.305s0.412-0.798,0.69-1.165c0.278-0.366,0.59-0.681,0.936-0.944
		c0.744-0.568,1.649-0.853,2.716-0.853c1.465,0,2.637,0.604,3.516,1.811c0.949,1.313,1.424,3.026,1.424,5.142
		c0,2.156-0.457,3.855-1.371,5.098c-0.855,1.16-2.045,1.74-3.568,1.74c-1.447,0-2.634-0.583-3.56-1.749
		C26.23,18.422,25.732,17.168,25.521,15.645z M28.853,18.756c0.451,0.422,1.02,0.633,1.705,0.633c1.904,0,2.856-1.693,2.856-5.08
		c0-2.76-0.645-4.424-1.934-4.992c-0.281-0.123-0.593-0.185-0.936-0.185s-0.659,0.062-0.949,0.185s-0.536,0.285-0.738,0.488
		c-0.202,0.202-0.384,0.446-0.545,0.733s-0.289,0.583-0.382,0.888s-0.171,0.632-0.233,0.979c-0.062,0.35-0.104,0.676-0.127,0.98
		s-0.035,0.617-0.035,0.936c0,0.32,0.012,0.635,0.035,0.945s0.066,0.639,0.127,0.984c0.061,0.345,0.139,0.665,0.233,0.958
		s0.221,0.575,0.382,0.849C28.473,18.329,28.653,18.563,28.853,18.756z"/>
</g>
</svg>
