<?xml version="1.0" encoding="utf-8"?>
<!-- Generator: Adobe Illustrator 17.0.0, SVG Export Plug-In . SVG Version: 6.00 Build 0)  -->
<!DOCTYPE svg PUBLIC "-//W3C//DTD SVG 1.1//EN" "http://www.w3.org/Graphics/SVG/1.1/DTD/svg11.dtd">
<svg version="1.1" id="Capa_1" xmlns="http://www.w3.org/2000/svg" xmlns:xlink="http://www.w3.org/1999/xlink" x="0px" y="0px"
	 width="140px" height="35px" viewBox="0 0 140 35" enable-background="new 0 0 140 35" xml:space="preserve">
<line fill="none" stroke="#FECD1B" stroke-width="2" stroke-linecap="round" stroke-miterlimit="10" x1="1.229" y1="3" x2="90.349" y2="3"/>
<line fill="none" stroke="#FECD1B" stroke-width="2" stroke-linecap="round" stroke-miterlimit="10" x1="90.349" y1="3" x2="112.407" y2="25.058"/>
<line fill="none" stroke="#FECD1B" stroke-width="2" stroke-linecap="round" stroke-miterlimit="10" x1="112.407" y1="25.058" x2="133.535" y2="3.932"/>
<line fill="none" stroke="#FECD1B" stroke-width="2" stroke-linecap="round" stroke-miterlimit="10" x1="90.815" y1="10.714" x2="112.873" y2="32.772"/>
<line fill="none" stroke="#FECD1B" stroke-width="2" stroke-linecap="round" stroke-miterlimit="10" x1="112.873" y1="32.772" x2="134" y2="11.645"/>
<g>
	<path fill="#010002" d="M4.69,15.909c-0.059-0.445-0.088-0.888-0.088-1.327s0.026-0.882,0.079-1.327s0.141-0.898,0.264-1.358
		s0.275-0.895,0.457-1.305s0.412-0.798,0.69-1.165s0.59-0.681,0.936-0.945c0.744-0.568,1.649-0.853,2.716-0.853
		c1.465,0,2.637,0.604,3.516,1.811c0.949,1.313,1.424,3.026,1.424,5.142c0,2.156-0.457,3.855-1.371,5.098
		c-0.855,1.16-2.045,1.74-3.568,1.74c-1.447,0-2.634-0.583-3.56-1.749C5.399,18.686,4.901,17.432,4.69,15.909z M8.021,19.02
		c0.451,0.422,1.02,0.633,1.705,0.633c1.904,0,2.856-1.693,2.856-5.08c0-2.76-0.645-4.424-1.934-4.992
		c-0.281-0.123-0.593-0.185-0.936-0.185S9.053,9.458,8.763,9.581s-0.536,0.286-0.738,0.488s-0.384,0.447-0.545,0.734
		s-0.288,0.582-0.382,0.887s-0.171,0.631-0.233,0.98s-0.104,0.675-0.127,0.98s-0.035,0.617-0.035,0.936s0.012,0.634,0.035,0.945
		s0.066,0.639,0.127,0.984s0.139,0.665,0.233,0.958s0.221,0.576,0.382,0.848S7.821,18.827,8.021,19.02z"/>
	<path fill="#010002" d="M16.326,21.191V7.876h4.28c1.254,0,2.229,0.308,2.927,0.923c0.674,0.592,1.011,1.345,1.011,2.259
		c0,1.506-0.545,2.467-1.635,2.883c-0.188,0.076-0.407,0.144-0.659,0.202c0.738,0.141,1.348,0.495,1.828,1.063
		c0.51,0.604,0.765,1.395,0.765,2.373c0,1.395-0.439,2.382-1.318,2.962c-0.674,0.434-1.623,0.65-2.848,0.65
		C20.677,21.191,16.326,21.191,16.326,21.191z M18.427,13.386h2.162c0.592,0,1.104-0.229,1.538-0.686
		c0.34-0.352,0.51-0.817,0.51-1.397c0-1.107-0.683-1.661-2.048-1.661h-2.162V13.386z M18.427,19.424h2.25
		c0.82,0,1.4-0.193,1.74-0.58c0.287-0.322,0.431-0.8,0.431-1.433c0-0.521-0.196-1.014-0.589-1.477
		c-0.416-0.492-0.943-0.738-1.582-0.738h-2.25C18.427,15.196,18.427,19.424,18.427,19.424z"/>
	<path fill="#010002" d="M25.353,18.633L26.592,18c0.223,0.686,0.656,1.178,1.301,1.477c0.258,0.117,0.5,0.176,0.725,0.176
		s0.4-0.018,0.523-0.053s0.23-0.078,0.321-0.127s0.171-0.122,0.242-0.215s0.129-0.186,0.176-0.277s0.086-0.205,0.119-0.343
		s0.057-0.262,0.075-0.374s0.032-0.252,0.044-0.422c0.012-0.24,0.018-0.533,0.018-0.879V7.876h2.101v9.606
		c0,2.133-0.8,3.401-2.399,3.806c-0.352,0.088-0.728,0.132-1.129,0.132s-0.765-0.05-1.09-0.149s-0.596-0.221-0.813-0.365
		s-0.415-0.322-0.593-0.536s-0.315-0.401-0.409-0.563s-0.179-0.347-0.255-0.558C25.458,19.02,25.394,18.815,25.353,18.633z"/>
	<path fill="#010002" d="M34.397,21.191V7.876h7.62v1.767h-5.52v3.691h3.841v1.767h-3.841v4.201h5.854v1.89L34.397,21.191
		L34.397,21.191z"/>
	<path fill="#010002" d="M42.817,9.642V7.876h9.29v1.767h-3.595v11.549h-2.101V9.642H42.817z"/>
	<path fill="#010002" d="M53.003,21.191V7.876h2.101v13.315H53.003z"/>
	<path fill="#010002" d="M60.825,16.656l2.61-8.78h2.224l-3.955,13.315h-1.758L55.991,7.876h2.224L60.825,16.656z"/>
	<path fill="#010002" d="M66.02,15.909c-0.059-0.445-0.088-0.888-0.088-1.327s0.026-0.882,0.079-1.327s0.141-0.898,0.264-1.358
		s0.275-0.895,0.457-1.305s0.411-0.798,0.689-1.165s0.591-0.681,0.937-0.945c0.744-0.568,1.649-0.853,2.716-0.853
		c1.465,0,2.637,0.604,3.516,1.811c0.949,1.313,1.424,3.026,1.424,5.142c0,2.156-0.457,3.855-1.371,5.098
		c-0.855,1.16-2.045,1.74-3.568,1.74c-1.447,0-2.634-0.583-3.56-1.749C66.729,18.686,66.231,17.432,66.02,15.909z M69.351,19.02
		c0.451,0.422,1.02,0.633,1.705,0.633c1.904,0,2.856-1.693,2.856-5.08c0-2.76-0.645-4.424-1.934-4.992
		c-0.281-0.123-0.593-0.185-0.937-0.185c-0.342,0-0.658,0.062-0.949,0.185c-0.289,0.123-0.535,0.286-0.738,0.488
		c-0.201,0.202-0.384,0.447-0.545,0.734s-0.288,0.583-0.382,0.888s-0.171,0.631-0.233,0.98c-0.061,0.349-0.104,0.675-0.127,0.98
		s-0.035,0.617-0.035,0.936s0.012,0.634,0.035,0.945s0.066,0.639,0.127,0.984c0.063,0.346,0.14,0.665,0.233,0.958
		s0.221,0.576,0.382,0.848S69.152,18.827,69.351,19.02z"/>
	<path fill="#010002" d="M76.786,17.781l1.688-0.554c0.006,0,0.018,0.044,0.035,0.132s0.049,0.204,0.092,0.347
		c0.045,0.144,0.105,0.302,0.186,0.475c0.078,0.173,0.194,0.346,0.347,0.519s0.331,0.33,0.536,0.47
		c0.457,0.322,1.025,0.483,1.705,0.483s1.179-0.167,1.498-0.501s0.479-0.731,0.479-1.191s-0.047-0.832-0.141-1.116
		s-0.258-0.532-0.492-0.743c-0.393-0.352-1.072-0.668-2.039-0.949c-1.705-0.498-2.801-1.269-3.287-2.312
		c-0.252-0.545-0.378-1.187-0.378-1.925c0-0.621,0.22-1.228,0.659-1.819c0.768-0.979,1.857-1.468,3.27-1.468
		c1.119,0,2.036,0.337,2.751,1.011c0.51,0.475,0.891,1.072,1.143,1.793l0.167,0.466c0.053,0.141,0.088,0.231,0.105,0.272
		l-1.714,0.606c-0.387-1.23-0.99-1.989-1.811-2.276c-0.205-0.07-0.419-0.105-0.642-0.105c-1.219,0-1.828,0.627-1.828,1.881
		c0,0.574,0.17,1.014,0.51,1.318c0.281,0.264,0.65,0.472,1.107,0.624l0.422,0.141c0.24,0.082,0.372,0.126,0.396,0.132l0.387,0.132
		c1.002,0.352,1.679,0.662,2.03,0.932c0.516,0.398,0.853,0.765,1.011,1.099c0.316,0.686,0.475,1.409,0.475,2.171
		c0,0.598-0.17,1.204-0.51,1.819c-0.457,0.826-1.181,1.368-2.171,1.626c-0.381,0.1-0.797,0.149-1.248,0.149
		s-0.874-0.041-1.271-0.123c-0.395-0.082-0.736-0.193-1.023-0.334s-0.551-0.302-0.791-0.483s-0.442-0.374-0.606-0.576
		s-0.308-0.404-0.431-0.606s-0.222-0.394-0.295-0.576s-0.133-0.343-0.18-0.483s-0.081-0.252-0.102-0.334
		S76.792,17.781,76.786,17.781z"/>
</g>
<g>
</g>
<g>
</g>
<g>
</g>
<g>
</g>
<g>
</g>
<g>
</g>
</svg>
