<?xml version="1.0" encoding="utf-8"?>
<!-- Generator: Adobe Illustrator 17.0.0, SVG Export Plug-In . SVG Version: 6.00 Build 0)  -->
<!DOCTYPE svg PUBLIC "-//W3C//DTD SVG 1.1//EN" "http://www.w3.org/Graphics/SVG/1.1/DTD/svg11.dtd">
<svg version="1.1" id="Capa_1" xmlns="http://www.w3.org/2000/svg" xmlns:xlink="http://www.w3.org/1999/xlink" x="0px" y="0px"
	 width="250px" height="250px" viewBox="0 0 250 250" enable-background="new 0 0 250 250" xml:space="preserve">
<g>
	<path fill="#FECD1B" d="M226.339,175.44h-12.352v-20.217l-15.152-0.183v14.441H30.962V68.609h167.872v33.956l15.152,0.765V62.166
		c0-4.809-3.898-8.709-8.709-8.709H24.522c-4.81,0-8.708,3.9-8.708,8.709V175.44H3.977c-2.197,0-3.977,1.78-3.977,3.978
		c0,9.44,7.683,17.124,17.124,17.124h137.759v-7.405c0-2.634,2.133-4.77,4.767-4.77c2.634,0,4.772,2.136,4.772,4.77v7.405h7.821
		v-7.405c0-2.634,2.138-4.77,4.767-4.77c2.635,0,4.772,2.136,4.772,4.77v7.405h31.407c9.443,0,17.126-7.684,17.126-17.124
		C230.315,177.221,228.536,175.44,226.339,175.44z"/>
	<path fill="#FECD1B" d="M80.465,95.194c-1.142-3.711-3.554-6.508-7.18-5.39c-3.505,1.077-4.217,4.697-3.013,8.617
		c1.204,3.829,3.712,6.503,7.216,5.426C80.95,102.783,81.754,99.386,80.465,95.194z M76.833,101.424
		c-1.229,0.378-2.437-0.872-3.371-3.986c-0.987-3.141-0.653-4.865,0.515-5.225c1.272-0.391,2.408,0.996,3.332,3.998
		C78.254,99.296,78.066,101.046,76.833,101.424z"/>
	<path fill="#FECD1B" d="M92.924,93.138c-0.594-3.836-2.578-6.95-6.33-6.369c-3.62,0.563-4.849,4.042-4.218,8.095
		c0.637,3.964,2.737,6.97,6.361,6.408C92.314,100.717,93.598,97.471,92.924,93.138z M88.436,98.78
		c-1.272,0.197-2.283-1.212-2.762-4.428c-0.526-3.251,0.057-4.909,1.262-5.096c1.315-0.205,2.239,1.33,2.718,4.434
		C90.152,96.879,89.71,98.583,88.436,98.78z"/>
	<polygon fill="#FECD1B" points="102.245,85.741 99.496,85.821 95.798,87.672 96.414,90.142 99.079,88.778 99.123,88.777 
		99.446,100.003 102.653,99.912 	"/>
	<path fill="#FECD1B" d="M113.273,85.929c-3.654-0.296-5.656,2.803-5.989,6.891c-0.301,4.003,1.041,7.415,4.696,7.712
		c3.607,0.292,5.614-2.567,5.967-6.936C118.26,89.726,117.057,86.237,113.273,85.929z M114.64,93.372
		c-0.262,3.218-1.089,4.77-2.369,4.666c-1.285-0.103-1.942-1.71-1.658-4.948c0.245-3.285,1.196-4.761,2.414-4.663
		C114.352,88.535,114.892,90.241,114.64,93.372z"/>
	<polygon fill="#FECD1B" points="125.756,87.779 121.755,88.839 121.855,91.382 124.747,90.59 124.787,90.597 122.818,101.659 
		125.974,102.221 128.462,88.26 	"/>
	<polygon fill="#FECD1B" points="137.468,104.973 141.109,91.268 138.451,90.562 134.376,91.286 134.263,93.831 137.209,93.281 
		137.253,93.292 134.369,104.151 	"/>
	<path fill="#FECD1B" d="M151.301,94.222c-3.465-1.194-6.174,1.31-7.508,5.189c-1.287,3.802-0.833,7.441,2.629,8.636
		c3.427,1.18,6.076-1.09,7.505-5.237C155.193,99.14,154.89,95.459,151.301,94.222z M150.778,101.771
		c-1.052,3.052-2.239,4.353-3.456,3.932c-1.217-0.418-1.453-2.139-0.374-5.204c1.053-3.122,2.341-4.317,3.496-3.918
		C151.703,97.013,151.802,98.802,150.778,101.771z"/>
	<path fill="#FECD1B" d="M157.53,112.278c3.352,1.373,6.127-0.74,7.795-4.795c1.473-3.591,1.383-7.28-2.125-8.722
		c-3.39-1.392-6.239,0.952-7.797,4.744C153.901,107.227,154.144,110.886,157.53,112.278z M158.491,104.773
		c1.229-3.054,2.586-4.173,3.715-3.709c1.229,0.507,1.226,2.296,0.033,5.2c-1.224,2.987-2.481,4.214-3.673,3.726
		C157.374,109.502,157.236,107.772,158.491,104.773z"/>
	<polygon fill="#FECD1B" points="171.527,117.402 176.233,104.027 173.64,103.114 169.524,103.514 169.212,106.041 172.191,105.724 
		172.233,105.739 168.502,116.336 	"/>
	<path fill="#FECD1B" d="M185.36,106.508c-3.54-0.941-6.061,1.749-7.115,5.712c-1.012,3.884-0.297,7.482,3.243,8.423
		c3.498,0.931,5.98-1.523,7.107-5.76C189.594,111.133,189.03,107.484,185.36,106.508z M185.379,114.074
		c-0.83,3.118-1.921,4.498-3.161,4.167c-1.243-0.33-1.605-2.029-0.749-5.164c0.827-3.188,2.026-4.471,3.204-4.157
		C185.961,109.263,186.186,111.038,185.379,114.074z"/>
	<polygon fill="#FECD1B" points="196.18,109.148 192.188,110.232 192.304,112.776 195.189,111.965 195.232,111.973 193.322,123.045 
		196.485,123.588 198.889,109.616 	"/>
	<polygon fill="#FECD1B" points="207.662,110.585 203.802,112.072 204.177,114.589 206.962,113.489 207.005,113.491 
		206.245,124.699 209.444,124.916 210.404,110.771 	"/>
	<path fill="#FECD1B" d="M220.272,125.136c3.615-0.18,5.228-3.273,5.011-7.652c-0.19-3.876-1.842-7.179-5.63-6.989
		c-3.66,0.183-5.242,3.515-5.036,7.609C214.839,122.11,216.611,125.319,220.272,125.136z M219.733,113.001
		c1.327-0.065,2.088,1.557,2.243,4.691c0.161,3.225-0.458,4.87-1.741,4.936c-1.285,0.064-2.146-1.445-2.287-4.691
		C217.76,114.649,218.512,113.062,219.733,113.001z"/>
	<polygon fill="#FECD1B" points="230.518,109.498 227.151,111.902 228.145,114.246 230.566,112.485 230.609,112.476 232.67,123.518 
		235.821,122.928 233.218,108.994 	"/>
	<path fill="#FECD1B" d="M246.664,120.101c3.411-1.215,4.067-4.643,2.598-8.773c-1.304-3.658-3.833-6.346-7.41-5.073
		c-3.451,1.229-4.005,4.876-2.632,8.738C240.587,118.766,243.214,121.328,246.664,120.101z M242.653,108.633
		c1.252-0.445,2.446,0.89,3.499,3.847c1.082,3.043,0.966,4.796-0.246,5.228c-1.214,0.431-2.471-0.765-3.54-3.833
		C241.241,110.779,241.503,109.043,242.653,108.633z"/>
	<polygon fill="#FECD1B" points="72.874,111.992 69.801,114.762 71.051,116.98 73.261,114.955 73.303,114.942 76.604,125.681 
		79.668,124.737 75.503,111.184 	"/>
	<path fill="#FECD1B" d="M86.594,108.582c-3.62,0.563-4.849,4.042-4.218,8.095c0.637,3.964,2.737,6.97,6.361,6.408
		c3.576-0.555,4.861-3.801,4.186-8.134C92.33,111.113,90.346,107.999,86.594,108.582z M88.436,120.593
		c-1.272,0.197-2.283-1.212-2.762-4.428c-0.526-3.251,0.057-4.909,1.262-5.096c1.315-0.205,2.239,1.33,2.718,4.434
		C90.152,118.692,89.71,120.396,88.436,120.593z"/>
	<polygon fill="#FECD1B" points="95.798,109.485 96.414,111.953 99.079,110.591 99.123,110.589 99.446,121.816 102.653,121.725 
		102.245,107.554 99.496,107.632 	"/>
	<path fill="#FECD1B" d="M113.273,107.741c-3.654-0.296-5.656,2.803-5.989,6.891c-0.301,4.002,1.041,7.415,4.696,7.71
		c3.607,0.293,5.614-2.565,5.967-6.935C118.26,111.538,117.057,108.048,113.273,107.741z M114.64,115.185
		c-0.262,3.218-1.089,4.77-2.369,4.666c-1.285-0.104-1.942-1.711-1.658-4.948c0.245-3.285,1.196-4.762,2.414-4.663
		C114.352,110.347,114.892,112.052,114.64,115.185z"/>
	<polygon fill="#FECD1B" points="125.974,124.034 128.462,110.072 125.756,109.591 121.755,110.652 121.855,113.195 
		124.747,112.402 124.787,112.41 122.818,123.471 	"/>
	<path fill="#FECD1B" d="M131.882,117.99c-1.011,3.885-0.294,7.484,3.248,8.424c3.499,0.929,5.982-1.527,7.106-5.765
		c0.998-3.754,0.433-7.403-3.24-8.378C135.454,111.33,132.934,114.025,131.882,117.99z M135.107,118.846
		c0.826-3.189,2.024-4.475,3.203-4.161c1.287,0.342,1.514,2.118,0.708,5.154c-0.828,3.121-1.915,4.502-3.159,4.172
		C134.614,123.68,134.252,121.982,135.107,118.846z"/>
	<path fill="#FECD1B" d="M146.421,129.86c3.427,1.18,6.076-1.09,7.505-5.237c1.266-3.672,0.963-7.351-2.627-8.588
		c-3.465-1.194-6.174,1.31-7.508,5.189C142.505,125.025,142.959,128.665,146.421,129.86z M146.947,122.311
		c1.053-3.122,2.341-4.316,3.496-3.918c1.26,0.433,1.359,2.222,0.335,5.191c-1.052,3.053-2.239,4.352-3.456,3.932
		C146.104,127.097,145.868,125.377,146.947,122.311z"/>
	<path fill="#FECD1B" d="M157.53,134.091c3.352,1.373,6.127-0.74,7.795-4.795c1.473-3.591,1.383-7.283-2.125-8.723
		c-3.39-1.391-6.239,0.952-7.797,4.746C153.901,129.04,154.144,132.699,157.53,134.091z M158.491,126.586
		c1.229-3.054,2.586-4.173,3.715-3.709c1.229,0.507,1.226,2.295,0.033,5.2c-1.224,2.987-2.481,4.214-3.673,3.725
		C157.374,131.314,157.236,129.585,158.491,126.586z"/>
	<path fill="#FECD1B" d="M169.222,138.658c3.416,1.202,6.082-1.051,7.539-5.186c1.29-3.663,1.015-7.346-2.567-8.605
		c-3.459-1.217-6.182,1.27-7.545,5.138C165.337,133.798,165.768,137.441,169.222,138.658z M169.799,131.113
		c1.073-3.114,2.369-4.301,3.522-3.895c1.257,0.442,1.342,2.229,0.298,5.193c-1.072,3.046-2.264,4.336-3.479,3.908
		C168.924,135.892,168.699,134.171,169.799,131.113z"/>
	<polygon fill="#FECD1B" points="183.823,142.83 187.472,129.129 184.815,128.422 180.741,129.146 180.627,131.688 183.573,131.14 
		183.616,131.151 180.724,142.005 	"/>
	<polygon fill="#FECD1B" points="196.485,145.4 198.889,131.428 196.18,130.96 192.188,132.044 192.304,134.587 195.189,133.778 
		195.232,133.786 193.322,144.857 	"/>
	<polygon fill="#FECD1B" points="209.444,146.729 210.404,132.584 207.662,132.398 203.802,133.885 204.177,136.402 
		206.962,135.302 207.005,135.304 206.245,146.511 	"/>
	<path fill="#FECD1B" d="M220.272,146.949c3.615-0.181,5.228-3.273,5.011-7.652c-0.19-3.876-1.842-7.179-5.63-6.989
		c-3.66,0.182-5.242,3.513-5.036,7.609C214.839,143.923,216.611,147.132,220.272,146.949z M219.733,134.814
		c1.327-0.067,2.088,1.554,2.243,4.691c0.161,3.223-0.458,4.87-1.741,4.934c-1.285,0.066-2.146-1.442-2.287-4.69
		C217.76,136.462,218.512,134.875,219.733,134.814z"/>
	<polygon fill="#FECD1B" points="230.518,131.311 227.151,133.715 228.145,136.059 230.566,134.298 230.609,134.289 232.67,145.329 
		235.821,144.741 233.218,130.807 	"/>
	<path fill="#FECD1B" d="M241.853,128.067c-3.451,1.229-4.005,4.877-2.632,8.739c1.366,3.773,3.993,6.335,7.443,5.105
		c3.411-1.212,4.067-4.641,2.598-8.771C247.958,129.483,245.429,126.796,241.853,128.067z M245.905,139.52
		c-1.214,0.433-2.471-0.763-3.54-3.832c-1.124-3.096-0.862-4.833,0.288-5.242c1.252-0.445,2.446,0.889,3.499,3.847
		C247.234,137.334,247.118,139.089,245.905,139.52z"/>
</g>
</svg>
