<?xml version="1.0" encoding="utf-8"?>
<!-- Generator: Adobe Illustrator 17.0.0, SVG Export Plug-In . SVG Version: 6.00 Build 0)  -->
<!DOCTYPE svg PUBLIC "-//W3C//DTD SVG 1.1//EN" "http://www.w3.org/Graphics/SVG/1.1/DTD/svg11.dtd">
<svg version="1.1" id="Capa_1" xmlns="http://www.w3.org/2000/svg" xmlns:xlink="http://www.w3.org/1999/xlink" x="0px" y="0px"
	 width="250px" height="250px" viewBox="0 0 250 250" enable-background="new 0 0 250 250" xml:space="preserve">
<path fill="#FECD1B" d="M227.73,12.412c-12.282,0-22.273,9.992-22.273,22.274c0,2.875,0.567,5.745,1.654,8.404l-36.573,36.573
	c-9.281-6.901-20.771-10.99-33.199-10.99c-9.925,0-19.607,2.641-28.147,7.657L86.212,49.943c1.555-3.091,2.371-6.504,2.371-9.983
	c0-12.279-9.991-22.269-22.271-22.269s-22.271,9.99-22.271,22.269c0,12.282,9.991,22.274,22.271,22.274
	c2.321,0,4.594-0.354,6.781-1.056L95.814,87.27c-9.196,10.254-14.232,23.353-14.232,37.158c0,5.533,0.821,11.004,2.443,16.292
	l-50.041,35.616C30.468,174.147,26.458,173,22.272,173C9.991,173.001,0,182.99,0,195.27c0,12.282,9.991,22.273,22.272,22.273
	c12.28,0,22.271-9.992,22.271-22.273c0-1.644-0.181-3.273-0.539-4.868l47.723-33.964c6.151,8.734,14.732,15.581,24.581,19.613
	l-5.321,15.004c-11.32,1.035-20.234,10.609-20.234,22.178c0,12.28,9.991,22.271,22.271,22.271s22.272-9.99,22.272-22.271
	c0-6.533-2.897-12.727-7.84-16.945l5.769-16.265c1.398,0.106,2.774,0.16,4.113,0.16c7.141,0,14.087-1.342,20.678-3.992
	l23.929,28.845c-1.656,3.168-2.523,6.683-2.523,10.279c0,12.282,9.99,22.274,22.268,22.274c12.282,0,22.274-9.992,22.274-22.274
	c0-12.279-9.992-22.269-22.274-22.269c-2.202,0-4.366,0.322-6.457,0.958l-22.209-26.772c12.789-10.647,20.067-26.092,20.067-42.803
	c0-12.096-3.874-23.304-10.443-32.45l36.675-36.675c2.66,1.085,5.53,1.653,8.406,1.653c12.28,0,22.27-9.99,22.27-22.269
	C250,22.405,240.01,12.412,227.73,12.412z M137.338,94.363c16.578,0,30.064,13.487,30.064,30.064s-13.486,30.064-30.064,30.064
	s-30.066-13.487-30.066-30.064C107.272,107.85,120.76,94.363,137.338,94.363z"/>
</svg>
