<?xml version="1.0" encoding="utf-8"?>
<!-- Generator: Adobe Illustrator 17.0.0, SVG Export Plug-In . SVG Version: 6.00 Build 0)  -->
<!DOCTYPE svg PUBLIC "-//W3C//DTD SVG 1.1//EN" "http://www.w3.org/Graphics/SVG/1.1/DTD/svg11.dtd">
<svg version="1.1" id="Capa_1" xmlns="http://www.w3.org/2000/svg" xmlns:xlink="http://www.w3.org/1999/xlink" x="0px" y="0px"
	 width="250px" height="250px" viewBox="0 0 250 250" enable-background="new 0 0 250 250" xml:space="preserve">
<g>
	<path fill="#FECD1B" d="M101.487,127.587c0.373,1.186,0.832,2.401,1.369,3.606c1.094,2.859,2.672,5.824,4.571,8.569
		c0.799,1.162,1.851,2.563,3.097,3.952c-1.132,0.804-1.944,1.758-2.308,2.867l-15.117,4.581
		c-7.314,2.101-12.613,24.481-15.212,38.271c13.774,8.378,29.897,13.192,47.036,13.192c0.003,0,0.004,0,0.008,0
		c2.011-0.001,4.049-0.069,6.058-0.201c14.823-0.978,28.878-5.469,41.232-13.002c-2.59-14.015-7.943-36.139-15.32-38.26
		l-15.117-4.581c-0.363-1.108-1.176-2.062-2.306-2.867c1.245-1.388,2.297-2.788,3.096-3.951c1.898-2.746,3.477-5.71,4.571-8.571
		c0.537-1.204,0.996-2.415,1.369-3.603c1.471-1.234,2.337-3.072,2.337-5.006v-4.733c0-1.359-0.428-2.688-1.214-3.79v-6.665
		c0-11.69-9.51-21.202-21.201-21.202h-6.872c-11.69,0-21.201,9.512-21.201,21.202v6.665c-0.786,1.101-1.214,2.431-1.214,3.789v4.733
		C99.149,124.513,100.016,126.354,101.487,127.587z M120.932,163.062c-0.057,0.554-0.449,1.022-0.988,1.17
		c-0.121,0.037-0.242,0.053-0.365,0.053c-0.419,0-0.824-0.198-1.085-0.546l-3.817-5.061c-0.178-0.238-0.274-0.524-0.274-0.82
		l0.005-8.121c0.001-0.479,0.249-0.919,0.656-1.166c0.409-0.243,0.916-0.26,1.337-0.035c1.11,0.59,2.219,0.981,3.298,1.172
		c0.649,0.114,1.121,0.679,1.121,1.338v3.387c0.193,0.076,0.369,0.2,0.512,0.356c0.258,0.284,0.383,0.667,0.343,1.051
		L120.932,163.062z M135.59,157.859c0,0.296-0.096,0.582-0.272,0.82l-3.813,5.061c-0.262,0.345-0.666,0.538-1.085,0.538
		c-0.122,0-0.244-0.013-0.365-0.049c-0.538-0.149-0.93-0.612-0.987-1.166l-0.745-7.222c-0.04-0.384,0.085-0.766,0.344-1.051
		c0.144-0.156,0.319-0.279,0.511-0.356v-3.387c0-0.66,0.474-1.224,1.122-1.338c1.078-0.191,2.187-0.583,3.297-1.171
		c0.421-0.226,0.928-0.208,1.337,0.035c0.409,0.247,0.657,0.687,0.657,1.165L135.59,157.859L135.59,157.859z M106.413,119.49
		c0-0.753,0.607-1.36,1.358-1.36h0.555v-2.422c0-0.515,0.292-0.986,0.752-1.216c1.872-0.933,5.585-2.499,9.429-2.499
		c3.066,0,5.609,1.016,7.557,3.032c2.429,2.51,5.226,3.781,8.317,3.781c1.749,0,3.559-0.412,5.376-1.228
		c0.421-0.187,0.907-0.15,1.294,0.099c0.181,0.114,0.329,0.275,0.435,0.453h0.742c0.749,0,1.358,0.608,1.358,1.36v2.236
		c0,0.46-0.233,0.888-0.617,1.14l-1.32,0.854l-0.072,0.563c-0.429,3.247-2.253,7.458-4.876,11.259
		c-3.324,4.821-6.437,6.978-8.05,6.978h-7.303c-1.612,0-4.726-2.156-8.049-6.978c-2.625-3.801-4.447-8.011-4.876-11.258
		l-0.073-0.565l-1.32-0.854c-0.384-0.252-0.617-0.68-0.617-1.14v-2.235H106.413z"/>
	<path fill="#FECD1B" d="M66.608,66.604c-11.69,0-21.201,9.512-21.201,21.202v6.665c-0.787,1.101-1.214,2.432-1.214,3.789v4.733
		c0,1.931,0.867,3.771,2.338,5.004c0.372,1.188,0.832,2.401,1.369,3.608c1.094,2.859,2.672,5.821,4.571,8.569
		c0.799,1.16,1.851,2.563,3.097,3.949c-1.133,0.805-1.944,1.761-2.308,2.867l-15.117,4.582c-0.592,0.171-1.172,0.48-1.738,0.903
		c5.097,21.599,17.887,40.174,35.216,52.773h1.536c0.612-3.043,1.333-6.36,2.161-9.724c5.833-23.691,11.737-28.272,16.238-29.582
		l11.188-3.39c-2.013-2.958-3.708-6.159-4.916-9.28c-0.399-0.905-0.762-1.818-1.087-2.731c-0.208-0.233-0.401-0.477-0.59-0.726
		l-9.323-2.826c-0.363-1.106-1.175-2.062-2.306-2.867c1.245-1.386,2.297-2.788,3.096-3.949c1.898-2.749,3.477-5.71,4.571-8.571
		c0.537-1.206,0.996-2.415,1.369-3.605c1.471-1.232,2.337-3.073,2.337-5.006V98.26c0-1.358-0.428-2.688-1.214-3.79v-6.665
		c0-11.69-9.51-21.202-21.199-21.202L66.608,66.604L66.608,66.604z M65.976,143.474c-0.057,0.556-0.449,1.022-0.988,1.169
		c-0.121,0.037-0.242,0.053-0.365,0.053c-0.419,0-0.822-0.198-1.084-0.543l-3.817-5.063c-0.178-0.236-0.274-0.524-0.274-0.821
		l0.005-8.12c0.001-0.478,0.249-0.918,0.656-1.164c0.409-0.244,0.916-0.262,1.337-0.038c1.11,0.589,2.22,0.981,3.298,1.173
		c0.649,0.116,1.122,0.678,1.122,1.338v3.388c0.193,0.076,0.369,0.199,0.512,0.353c0.258,0.285,0.383,0.669,0.343,1.051
		L65.976,143.474z M80.634,138.269c0,0.296-0.096,0.585-0.273,0.821l-3.813,5.063c-0.261,0.342-0.666,0.538-1.085,0.538
		c-0.122,0-0.244-0.015-0.365-0.049c-0.537-0.149-0.93-0.612-0.987-1.168l-0.746-7.223c-0.039-0.381,0.085-0.765,0.344-1.051
		c0.144-0.154,0.319-0.276,0.511-0.353v-3.388c0-0.66,0.474-1.222,1.122-1.338c1.078-0.192,2.188-0.584,3.297-1.172
		c0.421-0.225,0.928-0.206,1.337,0.037c0.409,0.246,0.658,0.687,0.658,1.163C80.634,130.149,80.634,138.269,80.634,138.269z
		 M84.801,97.989c0.42-0.188,0.907-0.149,1.294,0.099c0.181,0.117,0.329,0.275,0.435,0.454h0.742c0.749,0,1.358,0.608,1.358,1.359
		v2.235c0,0.463-0.233,0.889-0.617,1.142l-1.32,0.855l-0.072,0.563c-0.429,3.247-2.252,7.456-4.876,11.258
		c-3.324,4.821-6.437,6.979-8.049,6.979h-7.303c-1.612,0-4.726-2.157-8.048-6.979c-2.625-3.803-4.447-8.01-4.877-11.256
		l-0.073-0.565l-1.319-0.855c-0.384-0.253-0.617-0.679-0.617-1.142v-2.235c0-0.751,0.607-1.359,1.358-1.359h0.554v-2.424
		c0-0.515,0.292-0.986,0.752-1.215c1.872-0.935,5.585-2.501,9.429-2.501c3.066,0,5.61,1.018,7.557,3.033
		c2.429,2.509,5.227,3.781,8.317,3.781C81.174,99.217,82.984,98.805,84.801,97.989z"/>
	<path fill="#FECD1B" d="M158.446,145.944c4.526,1.319,10.456,5.856,16.26,29.159c0.862,3.458,1.618,6.924,2.258,10.147h1.508
		c5.41-3.95,10.426-8.53,14.953-13.696c9.981-11.391,16.829-24.763,20.197-39.071c-0.574-0.424-1.162-0.737-1.764-0.91
		l-15.117-4.582c-0.363-1.106-1.175-2.062-2.307-2.867c1.245-1.386,2.297-2.788,3.096-3.949c1.898-2.749,3.476-5.71,4.571-8.571
		c0.537-1.206,0.995-2.415,1.369-3.605c1.471-1.232,2.337-3.073,2.337-5.006v-4.733c0-1.358-0.428-2.688-1.214-3.79v-6.665
		c0-11.69-9.51-21.202-21.2-21.202h-6.872c-11.689,0-21.2,9.512-21.2,21.202v6.665c-0.787,1.101-1.214,2.432-1.214,3.789v4.733
		c0,1.931,0.867,3.771,2.338,5.004c0.373,1.188,0.832,2.401,1.369,3.608c1.093,2.859,2.672,5.821,4.571,8.569
		c0.799,1.16,1.851,2.563,3.097,3.949c-1.133,0.805-1.944,1.761-2.308,2.867l-9.321,2.826c-0.189,0.249-0.383,0.493-0.592,0.728
		c-0.324,0.911-0.687,1.822-1.087,2.728c-1.206,3.116-2.901,6.315-4.916,9.28L158.446,145.944z M175.889,143.474
		c-0.056,0.556-0.449,1.022-0.987,1.169c-0.121,0.037-0.242,0.053-0.365,0.053c-0.419,0-0.823-0.198-1.085-0.543l-3.818-5.063
		c-0.178-0.236-0.274-0.524-0.274-0.821l0.005-8.12c0.001-0.478,0.249-0.918,0.657-1.164c0.409-0.244,0.916-0.262,1.337-0.038
		c1.11,0.589,2.22,0.981,3.299,1.173c0.648,0.116,1.122,0.678,1.122,1.338v3.388c0.193,0.076,0.369,0.199,0.512,0.353
		c0.258,0.285,0.383,0.669,0.343,1.051L175.889,143.474z M190.547,138.269c0,0.296-0.096,0.585-0.272,0.821l-3.813,5.063
		c-0.262,0.342-0.667,0.538-1.085,0.538c-0.122,0-0.244-0.015-0.365-0.049c-0.538-0.149-0.93-0.612-0.987-1.168l-0.745-7.223
		c-0.039-0.381,0.085-0.765,0.344-1.051c0.144-0.154,0.318-0.276,0.511-0.353v-3.388c0-0.66,0.474-1.222,1.122-1.338
		c1.078-0.192,2.187-0.584,3.297-1.172c0.421-0.225,0.928-0.206,1.337,0.037c0.409,0.246,0.657,0.687,0.657,1.163L190.547,138.269
		L190.547,138.269z M163.38,104.699l-0.073-0.565l-1.32-0.855c-0.385-0.253-0.617-0.679-0.617-1.142v-2.235
		c0-0.751,0.608-1.359,1.358-1.359h0.555v-2.424c0-0.515,0.292-0.986,0.752-1.215c1.872-0.935,5.585-2.501,9.429-2.501
		c3.067,0,5.61,1.018,7.558,3.033c2.429,2.509,5.226,3.781,8.317,3.781c1.749,0,3.56-0.412,5.377-1.228
		c0.42-0.188,0.907-0.149,1.294,0.099c0.181,0.117,0.329,0.275,0.435,0.454h0.742c0.75,0,1.358,0.608,1.358,1.359v2.235
		c0,0.463-0.233,0.889-0.617,1.142l-1.32,0.855l-0.072,0.563c-0.43,3.247-2.253,7.456-4.877,11.258
		c-3.323,4.821-6.437,6.979-8.049,6.979h-7.303c-1.612,0-4.726-2.157-8.049-6.979C165.631,112.153,163.81,107.946,163.38,104.699z"
		/>
	<path fill="#FECD1B" d="M249.722,108.64c-1.136-17.224-5.687-33.683-13.527-48.919c-5.944-11.552-13.586-22.021-22.75-31.176
		l3.188-4.861c1.599-2.439,1.776-5.546,0.463-8.149c-1.312-2.604-3.914-4.312-6.826-4.476l-35.17-1.999
		c-2.913-0.163-5.689,1.234-7.288,3.672c-1.599,2.438-1.776,5.544-0.463,8.149l15.851,31.46c1.313,2.604,3.914,4.311,6.825,4.476
		c2.91,0.167,5.69-1.235,7.289-3.673l1.597-2.435c14.751,16.422,23.589,37.354,25.057,59.629
		c3.599,54.572-37.87,101.899-92.442,105.496c-54.572,3.6-101.897-37.869-105.497-92.441c-2.442-37.03,15.758-72.024,47.5-91.331
		c6.079-3.699,8.015-11.653,4.319-17.731c-2.509-4.125-7.062-6.49-11.882-6.172c-2.086,0.137-4.053,0.76-5.851,1.853
		C20.126,34.336-2.803,78.431,0.275,125.092c2.197,33.317,17.237,63.782,42.347,85.785c25.11,22.003,57.287,32.911,90.602,30.713
		s63.78-17.237,85.784-42.347C241.012,174.133,251.92,141.956,249.722,108.64z"/>
</g>
</svg>
