<?xml version="1.0" encoding="utf-8"?>
<!-- Generator: Adobe Illustrator 17.0.0, SVG Export Plug-In . SVG Version: 6.00 Build 0)  -->
<!DOCTYPE svg PUBLIC "-//W3C//DTD SVG 1.1//EN" "http://www.w3.org/Graphics/SVG/1.1/DTD/svg11.dtd">
<svg version="1.1" id="Capa_1" xmlns="http://www.w3.org/2000/svg" xmlns:xlink="http://www.w3.org/1999/xlink" x="0px" y="0px"
	 width="40px" height="30px" viewBox="0 0 40 30" enable-background="new 0 0 40 30" xml:space="preserve">
<g id="XMLID_2_">
	<g>
		<path fill="#35323A" d="M32.531,1.537l7.124,9.499L20.003,29.244L0.345,11.03l7.117-9.492H32.531z M37.038,10.152l-4.675-6.24
			l-2.449,6.24H37.038z M22.695,24.617l13.918-12.899h-7.36L22.695,24.617z M28.423,9.633l2.57-6.53h-9.101L28.423,9.633z
			 M20.003,26.438l7.482-14.72H12.582L20.003,26.438z M13.277,10.152h13.452l-6.726-6.726L13.277,10.152z M11.672,9.532l6.436-6.429
			H9.533L11.672,9.532z M17.339,24.643l-6.51-12.926H3.394L17.339,24.643z M10.228,10.152L7.995,3.44l-5.033,6.712H10.228z"/>
	</g>
</g>
<g>
</g>
<g>
</g>
<g>
</g>
<g>
</g>
<g>
</g>
<g>
</g>
</svg>
