<?xml version="1.0" encoding="utf-8"?>
<!-- Generator: Adobe Illustrator 17.0.0, SVG Export Plug-In . SVG Version: 6.00 Build 0)  -->
<!DOCTYPE svg PUBLIC "-//W3C//DTD SVG 1.1//EN" "http://www.w3.org/Graphics/SVG/1.1/DTD/svg11.dtd">
<svg version="1.1" id="Capa_1" xmlns="http://www.w3.org/2000/svg" xmlns:xlink="http://www.w3.org/1999/xlink" x="0px" y="0px"
	 width="165px" height="165px" viewBox="0 0 165 165" enable-background="new 0 0 165 165" xml:space="preserve">
<g>
	<polygon points="145.223,21.358 143.647,19.78 82.505,80.921 21.362,19.78 19.777,21.358 80.925,82.5 19.777,143.645 
		21.362,145.22 82.505,84.077 143.647,145.22 145.223,143.645 84.084,82.5 	"/>
	<g>
		<path d="M29.361,88.182c0.418,0.265,1.383,0.681,2.398,0.681c1.881,0,2.464-1.198,2.446-2.099
			c-0.017-1.517-1.382-2.165-2.797-2.165h-0.815V83.5h0.815c1.066,0,2.415-0.55,2.415-1.832c0-0.866-0.55-1.633-1.899-1.633
			c-0.868,0-1.7,0.383-2.166,0.717l-0.383-1.066c0.565-0.418,1.664-0.834,2.83-0.834c2.131,0,3.097,1.265,3.097,2.582
			c0,1.116-0.666,2.065-1.998,2.549v0.033c1.332,0.267,2.415,1.265,2.415,2.782c0,1.731-1.349,3.247-3.946,3.247
			c-1.215,0-2.282-0.383-2.814-0.733L29.361,88.182z"/>
	</g>
	<g>
		<path d="M74.343,49.685l-5.882-23.181h3.165l2.751,11.728c0.686,2.889,1.307,5.779,1.718,8.013h0.068
			c0.379-2.304,1.101-5.056,1.892-8.049l3.095-11.692h3.133l2.819,11.762c0.654,2.751,1.271,5.503,1.616,7.945h0.07
			c0.481-2.546,1.133-5.126,1.857-8.015l3.061-11.692h3.061l-6.569,23.181h-3.131l-2.923-12.071
			c-0.723-2.957-1.203-5.228-1.514-7.568h-0.07c-0.413,2.305-0.928,4.575-1.788,7.568l-3.302,12.071H74.343z"/>
	</g>
	<g>
		<path d="M126.911,78.391c0.882-0.132,1.931-0.231,3.08-0.231c2.082,0,3.564,0.483,4.547,1.397c1,0.916,1.582,2.215,1.582,4.031
			c0,1.832-0.565,3.33-1.614,4.362c-1.049,1.049-2.782,1.616-4.963,1.616c-1.032,0-1.898-0.05-2.63-0.133V78.391H126.911z
			 M128.358,88.317c0.366,0.067,0.9,0.084,1.465,0.084c3.097,0,4.78-1.731,4.78-4.763c0.017-2.647-1.482-4.328-4.547-4.328
			c-0.748,0-1.316,0.065-1.7,0.149v8.858H128.358z"/>
	</g>
	<g id="XMLID_2_">
		<g>
			<path fill="#35323A" d="M98.448,105.999l9.067,12.09l-25.011,23.173l-25.019-23.181l9.058-12.08h31.905V105.999z
				 M104.184,116.963l-5.95-7.942l-3.117,7.942H104.184z M85.93,135.371l17.712-16.416h-9.367L85.93,135.371z M93.22,116.302
				l3.271-8.311H84.908L93.22,116.302z M82.504,137.69l9.522-18.734H73.06L82.504,137.69z M73.944,116.963h17.121l-8.56-8.56
				L73.944,116.963z M71.901,116.173l8.192-8.182H69.18L71.901,116.173z M79.114,135.405l-8.285-16.45h-9.461L79.114,135.405z
				 M70.063,116.963l-2.842-8.542l-6.405,8.542H70.063z"/>
		</g>
	</g>
</g>
</svg>
