<?xml version="1.0" encoding="utf-8"?>
<!-- Generator: Adobe Illustrator 17.0.0, SVG Export Plug-In . SVG Version: 6.00 Build 0)  -->
<!DOCTYPE svg PUBLIC "-//W3C//DTD SVG 1.1//EN" "http://www.w3.org/Graphics/SVG/1.1/DTD/svg11.dtd">
<svg version="1.1" id="Capa_1" xmlns="http://www.w3.org/2000/svg" xmlns:xlink="http://www.w3.org/1999/xlink" x="0px" y="0px"
	 width="165px" height="165px" viewBox="0 0 165 165" enable-background="new 0 0 165 165" xml:space="preserve">
<g>
	<path d="M82.101,3.202C38.045,3.202,2.202,39.043,2.202,83.1c0,44.055,35.843,79.9,79.898,79.9C126.157,163,162,127.154,162,83.1
		C162,39.043,126.157,3.202,82.101,3.202z M82.101,161.308c-43.124,0-78.203-35.085-78.203-78.208
		c0-43.121,35.079-78.201,78.203-78.201c43.122,0,78.203,35.08,78.203,78.201C160.304,126.223,125.223,161.308,82.101,161.308z"/>
	<polygon points="123.356,43.212 122.341,42.195 82.954,81.582 43.566,42.195 42.545,43.212 81.936,82.599 42.545,121.988 
		43.566,123.003 82.954,83.615 122.341,123.003 123.356,121.988 83.971,82.599 	"/>
	<g>
		<path d="M48.719,86.259c0.269,0.171,0.891,0.439,1.545,0.439c1.212,0,1.587-0.772,1.576-1.352
			c-0.011-0.977-0.89-1.395-1.802-1.395h-0.525v-0.708h0.525c0.687,0,1.556-0.354,1.556-1.18c0-0.558-0.354-1.052-1.223-1.052
			c-0.559,0-1.095,0.247-1.395,0.462l-0.247-0.687c0.364-0.269,1.072-0.537,1.823-0.537c1.373,0,1.995,0.815,1.995,1.663
			c0,0.719-0.429,1.33-1.287,1.642v0.021c0.858,0.172,1.556,0.815,1.556,1.792c0,1.115-0.869,2.092-2.542,2.092
			c-0.783,0-1.47-0.247-1.813-0.472L48.719,86.259z"/>
	</g>
	<g>
		<path d="M77.696,61.46l-3.789-14.933h2.039l1.772,7.555c0.442,1.861,0.842,3.723,1.107,5.162h0.044
			c0.244-1.484,0.709-3.257,1.219-5.185l1.994-7.532H84.1l1.816,7.577c0.421,1.772,0.819,3.545,1.041,5.118h0.045
			c0.31-1.64,0.73-3.302,1.196-5.163l1.972-7.532h1.972L87.91,61.46h-2.017l-1.883-7.776c-0.466-1.905-0.775-3.368-0.975-4.875
			h-0.045c-0.266,1.485-0.598,2.947-1.152,4.875l-2.127,7.776H77.696z"/>
	</g>
	<g>
		<path d="M111.56,79.952c0.568-0.085,1.244-0.149,1.984-0.149c1.341,0,2.296,0.311,2.929,0.9c0.644,0.59,1.019,1.427,1.019,2.597
			c0,1.18-0.364,2.145-1.04,2.81c-0.676,0.676-1.792,1.041-3.197,1.041c-0.665,0-1.223-0.032-1.694-0.086V79.952z M112.492,86.346
			c0.236,0.043,0.58,0.054,0.944,0.054c1.995,0,3.079-1.115,3.079-3.068c0.011-1.705-0.955-2.788-2.929-2.788
			c-0.482,0-0.848,0.042-1.095,0.096V86.346z"/>
	</g>
	<g>
		<path fill="none" d="M149.631,83.101c0,37.294-30.232,67.528-67.53,67.528c-37.293,0-67.529-30.234-67.529-67.528
			c0-37.296,30.236-67.529,67.529-67.529C119.398,15.571,149.631,45.805,149.631,83.101z"/>
		<path d="M27.76,49.041l-6.694-2.439l0.53-0.779l3.35,1.29c0.826,0.314,1.642,0.646,2.262,0.92l0.011-0.017
			c-0.504-0.479-1.06-1.119-1.664-1.815l-2.36-2.724l0.525-0.771l3.369,1.278c0.787,0.301,1.568,0.609,2.228,0.935l0.011-0.018
			c-0.546-0.545-1.071-1.139-1.661-1.801l-2.366-2.715l0.514-0.754l4.605,5.505l-0.524,0.771l-3.463-1.305
			c-0.85-0.317-1.489-0.58-2.117-0.896l-0.011,0.017c0.498,0.488,0.97,0.996,1.563,1.709l2.419,2.838L27.76,49.041z"/>
		<path d="M32.975,40.322c0.295-0.077,0.886-0.339,1.311-0.798c0.786-0.851,0.488-1.614,0.075-1.982
			c-0.691-0.626-1.556-0.28-2.147,0.359l-0.341,0.368l-0.496-0.459l0.341-0.369c0.445-0.481,0.761-1.32,0.182-1.855
			c-0.392-0.362-0.967-0.434-1.53,0.176c-0.362,0.391-0.537,0.927-0.581,1.276l-0.642-0.271c0.048-0.431,0.319-1.101,0.807-1.627
			c0.891-0.963,1.866-0.871,2.46-0.321c0.504,0.467,0.654,1.164,0.316,1.968l0.015,0.014c0.677-0.49,1.581-0.562,2.266,0.071
			c0.782,0.724,0.903,1.966-0.183,3.14c-0.508,0.549-1.126,0.87-1.507,0.965L32.975,40.322z"/>
		<path d="M34.981,30.073c0.367-0.409,0.826-0.867,1.371-1.316c0.988-0.814,1.881-1.165,2.705-1.115
			c0.833,0.044,1.618,0.433,2.328,1.294c0.717,0.87,1.034,1.803,0.94,2.703c-0.088,0.908-0.688,1.854-1.724,2.708
			c-0.49,0.404-0.921,0.72-1.301,0.967L34.981,30.073z M39.553,34.217c0.2-0.111,0.459-0.313,0.729-0.534
			c1.47-1.212,1.591-2.691,0.404-4.13c-1.027-1.264-2.397-1.476-3.852-0.276c-0.355,0.293-0.599,0.546-0.748,0.735L39.553,34.217z"
			/>
		<path d="M47.928,20.918c0.448-0.317,0.997-0.663,1.629-0.98c1.145-0.576,2.093-0.721,2.887-0.489
			c0.803,0.228,1.482,0.78,1.984,1.778c0.507,1.007,0.61,1.987,0.319,2.845c-0.286,0.867-1.082,1.658-2.281,2.262
			c-0.567,0.286-1.058,0.498-1.483,0.655L47.928,20.918z M51.471,25.974c0.22-0.064,0.517-0.203,0.828-0.359
			c1.703-0.857,2.148-2.275,1.31-3.941c-0.724-1.46-2.013-1.97-3.697-1.122c-0.412,0.207-0.705,0.4-0.893,0.552L51.471,25.974z"/>
		<path d="M61.88,18.848l-2.538,0.876l0.812,2.354l2.83-0.976l0.243,0.707l-3.672,1.267l-2.252-6.53l3.526-1.217l0.244,0.707
			l-2.684,0.926l0.712,2.064l2.538-0.876L61.88,18.848z"/>
		<path d="M66.565,19.772c0.442,0.157,1.056,0.234,1.656,0.105c0.892-0.191,1.311-0.774,1.164-1.455
			c-0.136-0.63-0.573-0.913-1.56-1.067c-1.185-0.154-1.988-0.578-2.192-1.529c-0.226-1.051,0.478-2.019,1.788-2.301
			c0.691-0.148,1.226-0.096,1.563,0.01l-0.087,0.763c-0.246-0.073-0.74-0.177-1.351-0.045c-0.921,0.197-1.152,0.823-1.054,1.284
			c0.136,0.63,0.612,0.853,1.621,1.013c1.235,0.195,1.935,0.621,2.147,1.612c0.224,1.041-0.354,2.107-1.944,2.449
			c-0.651,0.14-1.402,0.103-1.814-0.061L66.565,19.772z"/>
		<path d="M74.707,12.504l0.751,6.859l-0.886,0.097l-0.751-6.859L74.707,12.504z"/>
		<path d="M84.881,18.762c-0.401,0.137-1.193,0.359-2.125,0.344c-1.045-0.017-1.9-0.298-2.565-0.953
			c-0.584-0.583-0.938-1.511-0.92-2.586c0.044-2.058,1.481-3.54,3.795-3.502c0.799,0.013,1.421,0.197,1.715,0.346l-0.227,0.724
			c-0.366-0.17-0.824-0.311-1.521-0.322c-1.68-0.027-2.792,0.999-2.82,2.729c-0.028,1.751,1.009,2.802,2.616,2.828
			c0.584,0.01,0.984-0.065,1.19-0.165l0.034-2.058l-1.402-0.022l0.012-0.717l2.272,0.037L84.881,18.762z"/>
		<path d="M88.877,19.324l0.997-6.829l0.963,0.141l1.684,3.775c0.39,0.874,0.68,1.651,0.901,2.397l0.022-0.007
			c0.052-0.924,0.152-1.758,0.309-2.821l0.417-2.857l0.831,0.121l-0.998,6.829l-0.892-0.13l-1.662-3.782
			c-0.365-0.829-0.707-1.676-0.943-2.466l-0.032,0.006c-0.074,0.868-0.175,1.691-0.34,2.826l-0.427,2.918L88.877,19.324z"/>
		<path d="M103.106,21.367c0.288,0.37,0.764,0.766,1.34,0.979c0.854,0.317,1.521,0.053,1.764-0.601
			c0.225-0.604,0.008-1.078-0.74-1.739c-0.917-0.767-1.366-1.557-1.026-2.469c0.375-1.008,1.488-1.445,2.745-0.978
			c0.663,0.246,1.085,0.578,1.313,0.849l-0.483,0.596c-0.169-0.194-0.529-0.547-1.114-0.765c-0.883-0.328-1.416,0.074-1.58,0.517
			c-0.225,0.604,0.059,1.048,0.822,1.726c0.937,0.829,1.297,1.564,0.943,2.515c-0.371,0.998-1.432,1.587-2.957,1.02
			c-0.624-0.232-1.237-0.668-1.498-1.027L103.106,21.367z"/>
		<path d="M113.954,20.499l-1.864-0.966l0.349-0.673l4.538,2.353l-0.35,0.673l-1.873-0.972l-2.829,5.457l-0.8-0.415L113.954,20.499z
			"/>
		<path d="M121.392,23.953l-2.344,3.349c-0.887,1.268-0.7,2.198,0.055,2.727c0.839,0.588,1.764,0.41,2.64-0.841l2.344-3.349
			l0.738,0.518l-2.309,3.298c-1.216,1.737-2.63,1.811-3.855,0.952c-1.158-0.811-1.566-2.084-0.339-3.838l2.332-3.332L121.392,23.953
			z"/>
		<path d="M128.748,29.652c0.452,0.313,0.964,0.71,1.479,1.194c0.933,0.877,1.393,1.719,1.447,2.543
			c0.062,0.831-0.225,1.659-0.99,2.473c-0.771,0.82-1.657,1.254-2.563,1.273c-0.912,0.028-1.927-0.448-2.904-1.367
			c-0.463-0.436-0.83-0.823-1.123-1.169L128.748,29.652z M125.214,34.71c0.137,0.185,0.368,0.417,0.622,0.655
			c1.388,1.306,2.871,1.238,4.148-0.119c1.124-1.18,1.161-2.565-0.212-3.856c-0.336-0.316-0.617-0.524-0.824-0.648L125.214,34.71z"
			/>
		<path d="M136.579,37.591l-5.266,4.464l-0.576-0.68l5.266-4.464L136.579,37.591z"/>
		<path d="M140.16,48.308c-1.979,1.317-3.828,0.813-4.805-0.654c-1.01-1.519-0.542-3.368,1.197-4.525
			c1.825-1.215,3.774-0.875,4.797,0.66C142.394,45.357,141.866,47.173,140.16,48.308z M137.098,43.909
			c-1.228,0.817-1.886,2.215-1.107,3.384c0.783,1.177,2.309,1.121,3.614,0.253c1.143-0.761,1.939-2.152,1.116-3.39
			C139.903,42.929,138.36,43.069,137.098,43.909z"/>
	</g>
	<g>
		<path fill="none" d="M149.631,83.101c0-37.296-30.232-67.529-67.53-67.529c-37.293,0-67.529,30.233-67.529,67.529
			c0,37.294,30.236,67.528,67.529,67.528C119.398,150.629,149.631,120.395,149.631,83.101z"/>
		<path d="M14.223,90.865c0.599-0.088,1.129,0.34,1.205,0.929c0.076,0.59-0.329,1.128-0.919,1.204c-0.6,0.077-1.127-0.33-1.205-0.93
			C13.228,91.479,13.623,90.942,14.223,90.865z"/>
		<path d="M13.975,103.252l6.541-2.2l0.311,0.922l-2.604,3.209c-0.604,0.743-1.165,1.354-1.729,1.89l0.016,0.017
			c0.848-0.372,1.637-0.659,2.655-1.002l2.737-0.921l0.268,0.796l-6.541,2.201l-0.287-0.854l2.62-3.193
			c0.574-0.701,1.175-1.39,1.772-1.958l-0.02-0.025c-0.809,0.326-1.589,0.61-2.676,0.976l-2.795,0.94L13.975,103.252z"/>
		<path d="M23.44,116.569c-2.117,1.084-3.898,0.371-4.701-1.198c-0.831-1.624-0.155-3.409,1.706-4.361
			c1.952-0.999,3.852-0.439,4.691,1.203C25.996,113.892,25.265,115.636,23.44,116.569z M20.897,111.849
			c-1.313,0.673-2.127,1.986-1.487,3.236c0.645,1.26,2.168,1.378,3.563,0.664c1.223-0.626,2.174-1.918,1.497-3.241
			C23.798,111.193,22.248,111.158,20.897,111.849z"/>
		<path d="M22.868,121.256c0.316-0.208,0.68-0.14,0.876,0.159c0.196,0.3,0.108,0.651-0.208,0.859
			c-0.308,0.202-0.668,0.157-0.876-0.16C22.464,121.814,22.56,121.458,22.868,121.256z"/>
		<path d="M31.3,123.918l-0.013-0.017l-1.214-0.507l0.424-0.567l1.521,0.643l0.482,0.597l-5.177,4.186l-0.548-0.677L31.3,123.918z"
			/>
		<path d="M39.38,139.565c-0.357-0.081-0.969-0.369-1.619-0.9c-1.508-1.232-1.864-3.112-0.431-4.865
			c1.368-1.675,3.43-1.882,5.088-0.526c0.667,0.545,0.971,1.031,1.075,1.275l-0.627,0.428c-0.158-0.342-0.453-0.741-0.897-1.104
			c-1.254-1.024-2.742-0.904-3.89,0.5c-1.07,1.31-1.004,2.767,0.298,3.83c0.42,0.344,0.92,0.606,1.308,0.699L39.38,139.565z"/>
		<path d="M49.742,142.39c-1.235,2.028-3.123,2.353-4.627,1.437c-1.557-0.948-1.914-2.82-0.828-4.604
			c1.14-1.871,3.048-2.387,4.622-1.429C50.518,138.774,50.808,140.641,49.742,142.39z M45.111,139.7
			c-0.767,1.259-0.772,2.803,0.426,3.532c1.207,0.734,2.564,0.04,3.38-1.298c0.714-1.172,0.847-2.769-0.421-3.541
			C47.237,137.627,45.899,138.406,45.111,139.7z"/>
		<path d="M54.795,141.241c0.532,0.136,1.151,0.33,1.803,0.604c1.181,0.498,1.906,1.126,2.244,1.881
			c0.348,0.759,0.368,1.635-0.066,2.664c-0.438,1.039-1.117,1.754-1.959,2.088c-0.847,0.345-1.964,0.252-3.201-0.271
			c-0.586-0.247-1.065-0.482-1.461-0.704L54.795,141.241z M53.243,147.217c0.191,0.126,0.49,0.263,0.812,0.398
			c1.757,0.74,3.125,0.16,3.85-1.559c0.643-1.498,0.194-2.811-1.543-3.543c-0.426-0.18-0.763-0.277-1-0.321L53.243,147.217z"/>
		<path d="M66.13,148.975l-2.591-0.7l-0.648,2.403l2.887,0.779l-0.194,0.722l-3.747-1.012l1.799-6.664l3.6,0.972l-0.195,0.722
			l-2.738-0.739l-0.569,2.105l2.591,0.7L66.13,148.975z"/>
		<path d="M76.018,147.043c0.546-0.053,1.193-0.079,1.898-0.041c1.278,0.068,2.172,0.413,2.745,1.008
			c0.583,0.596,0.898,1.412,0.838,2.526c-0.06,1.125-0.457,2.026-1.135,2.626c-0.679,0.609-1.761,0.899-3.101,0.827
			c-0.634-0.033-1.163-0.093-1.61-0.168L76.018,147.043z M76.579,153.184c0.223,0.054,0.55,0.081,0.897,0.1
			c1.901,0.103,2.991-0.905,3.091-2.766c0.098-1.625-0.767-2.707-2.648-2.809c-0.46-0.024-0.81-0.002-1.048,0.036L76.579,153.184z"
			/>
		<path d="M89.299,150.489l-2.675,0.212l0.196,2.48l2.981-0.236l0.059,0.745l-3.869,0.307l-0.545-6.88l3.716-0.295l0.06,0.745
			l-2.828,0.225l0.173,2.174l2.674-0.212L89.299,150.489z"/>
		<path d="M94.139,151.987c0.44,0.162,1.053,0.247,1.655,0.125c0.894-0.181,1.32-0.758,1.183-1.44
			c-0.128-0.633-0.563-0.921-1.547-1.088c-1.184-0.168-1.982-0.603-2.175-1.557c-0.214-1.054,0.502-2.014,1.817-2.279
			c0.692-0.14,1.227-0.081,1.563,0.029l-0.097,0.761c-0.245-0.075-0.738-0.185-1.351-0.062c-0.924,0.188-1.163,0.811-1.07,1.272
			c0.128,0.632,0.603,0.86,1.609,1.033c1.234,0.21,1.928,0.645,2.129,1.639c0.211,1.044-0.379,2.104-1.976,2.427
			c-0.652,0.132-1.404,0.085-1.814-0.083L94.139,151.987z"/>
		<path d="M101.509,144.188l2.047,6.592l-0.852,0.265l-2.047-6.593L101.509,144.188z"/>
		<path d="M112.999,146.739c-0.308,0.292-0.936,0.825-1.79,1.2c-0.957,0.42-1.853,0.522-2.731,0.203
			c-0.774-0.287-1.483-0.983-1.916-1.969c-0.818-1.89-0.129-3.838,1.991-4.77c0.732-0.321,1.375-0.413,1.705-0.401l0.095,0.753
			c-0.403-0.002-0.879,0.062-1.518,0.342c-1.539,0.676-2.123,2.074-1.427,3.66c0.705,1.604,2.088,2.128,3.561,1.481
			c0.535-0.235,0.868-0.471,1.015-0.647l-0.828-1.886l-1.285,0.564l-0.289-0.657l2.083-0.915L112.999,146.739z"/>
		<path d="M117.488,144.698l-3.661-5.852l0.824-0.516l3.728,1.787c0.863,0.414,1.588,0.818,2.24,1.244l0.013-0.02
			c-0.559-0.738-1.021-1.439-1.592-2.351l-1.532-2.449l0.712-0.445l3.661,5.853l-0.764,0.478l-3.716-1.807
			c-0.815-0.396-1.624-0.82-2.316-1.27l-0.021,0.025c0.505,0.711,0.963,1.403,1.571,2.376l1.564,2.5L117.488,144.698z"/>
		<path d="M129.323,134.666c0.458-0.101,1.021-0.358,1.463-0.785c0.656-0.633,0.705-1.349,0.222-1.85
			c-0.448-0.465-0.97-0.474-1.889-0.085c-1.089,0.495-1.995,0.559-2.671-0.142c-0.746-0.774-0.659-1.968,0.306-2.899
			c0.509-0.49,0.991-0.728,1.333-0.816l0.328,0.694c-0.248,0.068-0.722,0.24-1.171,0.675c-0.679,0.653-0.545,1.308-0.218,1.646
			c0.447,0.465,0.971,0.401,1.912,0.006c1.152-0.486,1.972-0.493,2.675,0.236c0.74,0.767,0.813,1.978-0.359,3.107
			c-0.479,0.463-1.138,0.827-1.573,0.906L129.323,134.666z"/>
		<path d="M132.152,124.32l-1.323,1.63l-0.588-0.479l3.221-3.967l0.588,0.478l-1.329,1.638l4.77,3.873l-0.568,0.699L132.152,124.32z
			"/>
		<path d="M142.245,120.82l-2.492-1.545l-4.53-0.24l0.534-0.862l2.134,0.177c0.585,0.049,1.05,0.096,1.573,0.167l0.011-0.018
			c-0.281-0.403-0.54-0.841-0.844-1.343l-1.097-1.851l0.535-0.862l2.15,4.06l2.501,1.551L142.245,120.82z"/>
		<path d="M139.614,111.438l0.375-0.809l5.585,2.586l1.239-2.676l0.678,0.313l-1.613,3.485L139.614,111.438z"/>
		<path d="M147.12,102.267l-0.828,2.554l2.369,0.768l0.923-2.847l0.712,0.23l-1.197,3.695l-6.572-2.129l1.15-3.549l0.712,0.23
			l-0.875,2.701l2.076,0.673l0.828-2.555L147.12,102.267z"/>
		<path d="M149.681,93.155c-0.601-0.068-1.004-0.618-0.926-1.208c0.078-0.589,0.608-1.005,1.198-0.927
			c0.6,0.079,1.005,0.608,0.926,1.208C150.801,92.817,150.28,93.235,149.681,93.155z"/>
	</g>
	<g id="XMLID_2_">
		<g>
			<path fill="#35323A" d="M93.224,97.737l5.841,7.788l-16.112,14.928l-16.117-14.933l5.835-7.782H93.224z M96.919,104.8
				l-3.833-5.116l-2.008,5.116H96.919z M85.16,116.658l11.41-10.575h-6.034L85.16,116.658z M89.856,104.374l2.107-5.354h-7.461
				L89.856,104.374z M82.953,118.152l6.134-12.068H76.869L82.953,118.152z M77.439,104.8h11.029l-5.514-5.514L77.439,104.8z
				 M76.123,104.291l5.277-5.271h-7.03L76.123,104.291z M80.769,116.68l-5.337-10.597h-6.095L80.769,116.68z M74.939,104.8
				l-1.831-5.503l-4.126,5.503H74.939z"/>
		</g>
	</g>
</g>
<g>
</g>
<g>
</g>
<g>
</g>
<g>
</g>
<g>
</g>
<g>
</g>
</svg>
