<?xml version="1.0" encoding="utf-8"?>
<!-- Generator: Adobe Illustrator 17.0.0, SVG Export Plug-In . SVG Version: 6.00 Build 0)  -->
<!DOCTYPE svg PUBLIC "-//W3C//DTD SVG 1.1//EN" "http://www.w3.org/Graphics/SVG/1.1/DTD/svg11.dtd">
<svg version="1.1" id="Capa_1" xmlns="http://www.w3.org/2000/svg" xmlns:xlink="http://www.w3.org/1999/xlink" x="0px" y="0px"
	 width="125px" height="125px" viewBox="0 0 125 125" enable-background="new 0 0 125 125" xml:space="preserve">
<g id="icomoon-ignore">
</g>
<path fill="#FECD1B" d="M62.5,102.365l-0.182,0.224L20.833,49.479c-1.891-2.385-5.208-5.266-5.208-11.813
	c0-11.49,9.349-20.833,20.833-20.833c11.49,0,26.042,9.344,26.042,20.833V20.411C56.901,11.984,47.318,6.417,36.458,6.417
	c-17.234,0-31.25,14.016-31.25,31.25c0,10.708,5.208,15.625,6.552,19.109l50.74,61.573V102.365z M62.5,102.365l0.182,0.224
	l41.484-53.109c1.891-2.385,5.208-5.266,5.208-11.813c0-11.49-9.349-20.833-20.833-20.833S62.5,26.177,62.5,37.667V20.411
	c5.604-8.427,15.188-13.995,26.042-13.995c17.234,0,31.25,14.016,31.25,31.25c0,10.708-5.208,15.625-6.552,19.109L62.5,118.349
	C62.5,118.349,62.5,102.365,62.5,102.365z"/>
</svg>
