<?xml version="1.0" encoding="utf-8"?>
<!-- Generator: Adobe Illustrator 17.0.0, SVG Export Plug-In . SVG Version: 6.00 Build 0)  -->
<!DOCTYPE svg PUBLIC "-//W3C//DTD SVG 1.1//EN" "http://www.w3.org/Graphics/SVG/1.1/DTD/svg11.dtd">
<svg version="1.1" id="Capa_1" xmlns="http://www.w3.org/2000/svg" xmlns:xlink="http://www.w3.org/1999/xlink" x="0px" y="0px"
	 width="125px" height="125px" viewBox="0 0 125 125" enable-background="new 0 0 125 125" xml:space="preserve">
<g id="icomoon-ignore">
</g>
<path fill="#FECD1B" d="M80.302,3.026L42.797,23.807L0,0v95.328l43.927,23.813l35.411-20.875l40.453,22.281V25.385
	C119.792,25.385,80.302,3.026,80.302,3.026z M109.375,63.719L83.333,50.375V17.677l26.042,13.948V63.719z M46.875,32.833
	l26.042-14.88V50.62L46.875,65.5C46.875,65.5,46.875,32.833,46.875,32.833z M46.875,71.505L72.917,56.62v32.677l-26.042,14.87
	V71.505z M36.458,32.833v32.474L10.417,49.646V17.948L36.458,32.833z M10.417,55.729l26.042,15.661v32.776l-26.042-14.87
	C10.417,89.297,10.417,55.729,10.417,55.729z M83.333,89.193V56.229l26.042,13.344v33.568L83.333,89.193z"/>
</svg>
