<?xml version="1.0" encoding="utf-8"?>
<!-- Generator: Adobe Illustrator 17.0.0, SVG Export Plug-In . SVG Version: 6.00 Build 0)  -->
<!DOCTYPE svg PUBLIC "-//W3C//DTD SVG 1.1//EN" "http://www.w3.org/Graphics/SVG/1.1/DTD/svg11.dtd">
<svg version="1.1" id="Capa_1" xmlns="http://www.w3.org/2000/svg" xmlns:xlink="http://www.w3.org/1999/xlink" x="0px" y="0px"
	 width="125px" height="125px" viewBox="0 0 125 125" enable-background="new 0 0 125 125" xml:space="preserve">
<g id="icomoon-ignore">
</g>
<path fill="#FECD1B" d="M122.854,103.958c-7.599-17.495-25.214-27.656-38-32c7.833-6.401,12.458-18.474,12.458-34.286
	c0-21.016-17.568-26.573-26.859-26.573c-1.495,0-3.214,0.167-5.026,0.495c-4.99-4.484-11.589-6.385-16.839-6.385
	c-9.708,0-24.151,6.365-24.151,23.891c0,13.948,4.073,24.63,10.984,30.38C24.547,62.323,9.734,69.344,2.146,86.818L0,91.76
	l5.016,1.979c0.448,0.177,6.615,2.542,15.948,4.63c-1.068,1.813-2.073,3.641-2.922,5.589l-2.151,4.943l5.016,1.979
	c0.927,0.359,22.922,8.911,49.542,8.911s48.615-8.552,49.542-8.911l5.01-1.979C125,108.901,122.854,103.958,122.854,103.958z
	 M86.896,37.677c0,17.87-6.302,28.969-16.443,28.969S54.01,55.547,54.01,37.677c0-15.208,13.724-16.125,16.417-16.156
	C73.172,21.552,86.896,22.469,86.896,37.677z M48.589,15.625c0.526,0,2.609,0.089,4.99,0.859c-5.573,4.01-9.984,10.656-9.984,21.193
	c0,5.724,0.62,10.948,1.76,15.604c-7.667-2.443-10.5-13.62-10.5-24.182C34.854,16.437,46.323,15.651,48.589,15.625z M48.589,67.948
	c0.063,0,1.51,0.031,3.781,0.323c2.271,2.802,4.943,4.969,7.953,6.453c-8.198,1.641-19.875,5.557-29.344,14.922
	c-6.823-1.099-12.667-2.573-16.589-3.75C25.573,68.292,47.589,67.953,48.589,67.948z M70.448,109.375
	c-17.063,0-34.203-3.906-42.036-6.323c1.234-3.578,5.135-8.307,6.49-9.932c14.547-14.089,35.333-14.385,35.531-14.385
	c0.042,0,3.797,0.057,9.141,1.125c9.281,2.344,23.698,10.911,31.115,23.182C102.859,105.458,87.536,109.375,70.448,109.375z"/>
</svg>
